Hamlet-Tertia18.ufo
<glyph name="exclam" format="1">
  <advance width="195"/>
  <unicode hex="0021"/>
  <outline>
    <contour>
      <point x="150" y="710" type="curve"/>
      <point x="45" y="710" type="line"/>
      <point x="63" y="482"/>
      <point x="82" y="262"/>
      <point x="82" y="147" type="curve"/>
      <point x="113" y="147" type="line"/>
      <point x="113" y="262"/>
      <point x="130" y="482"/>
    </contour>
    <component base="period"/>
  </outline>
</glyph>
<glyph name="parenleft" format="1">
  <advance width="279"/>
  <unicode hex="0028"/>
  <outline>
    <contour>
      <point x="159" y="234" type="curve"/>
      <point x="159" y="50"/>
      <point x="244" y="-110"/>
      <point x="279" y="-145" type="curve"/>
      <point x="279" y="-205" type="line"/>
      <point x="243" y="-205"/>
      <point x="70" y="0"/>
      <point x="70" y="233" type="curve"/>
      <point x="70" y="502"/>
      <point x="152" y="591"/>
      <point x="236" y="710" type="curve"/>
      <point x="279" y="710" type="line"/>
      <point x="214" y="591"/>
      <point x="159" y="502"/>
    </contour>
  </outline>
</glyph>
<glyph name="comma" format="1">
  <advance width="219"/>
  <unicode hex="002C"/>
  <outline>
    <contour>
      <point x="110" y="26" type="line"/>
      <point x="20" y="-142" type="line"/>
      <point x="32" y="-152" type="line"/>
      <point x="179" y="27" type="line"/>
      <point x="179" y="31" type="line"/>
      <point x="111" y="97" type="line"/>
      <point x="106" y="97" type="line"/>
      <point x="48" y="27" type="line"/>
      <point x="48" y="22" type="line"/>
      <point x="121" y="-31" type="line"/>
    </contour>
  </outline>
</glyph>
<glyph name="hyphen" format="1">
  <advance width="377"/>
  <unicode hex="002D"/>
  <outline>
    <contour>
      <point x="30" y="162" type="line"/>
      <point x="77" y="222" type="line"/>
      <point x="347" y="222" type="line"/>
      <point x="300" y="162" type="line"/>
    </contour>
  </outline>
</glyph>
<glyph name="period" format="1">
  <advance width="195"/>
  <unicode hex="002E"/>
  <outline>
    <contour>
      <point x="99" y="-20" type="line"/>
      <point x="103" y="-20" type="line"/>
      <point x="155" y="42" type="line"/>
      <point x="155" y="46" type="line"/>
      <point x="96" y="97" type="line"/>
      <point x="92" y="97" type="line"/>
      <point x="40" y="36" type="line"/>
      <point x="40" y="32" type="line"/>
    </contour>
  </outline>
</glyph>
<glyph name="zero" format="1">
  <advance width="416"/>
  <unicode hex="0030"/>
  <outline>
    <contour>
      <point x="203" y="-10" type="curve"/>
      <point x="273" y="85" type="line"/>
      <point x="174" y="85"/>
      <point x="105" y="137"/>
      <point x="105" y="237" type="curve"/>
      <point x="105" y="277"/>
      <point x="133" y="325"/>
      <point x="143" y="325" type="curve"/>
      <point x="203" y="410" type="line"/>
      <point x="193" y="410"/>
      <point x="103" y="331"/>
      <point x="92" y="321" type="curve"/>
      <point x="60" y="292"/>
      <point x="30" y="237"/>
      <point x="30" y="172" type="curve"/>
      <point x="30" y="72"/>
      <point x="103" y="0"/>
    </contour>
    <contour>
      <point x="203" y="410" type="curve"/>
      <point x="143" y="325" type="line"/>
      <point x="242" y="325"/>
      <point x="311" y="263"/>
      <point x="311" y="163" type="curve"/>
      <point x="311" y="123"/>
      <point x="283" y="85"/>
      <point x="273" y="85" type="curve"/>
      <point x="203" y="-10" type="line"/>
      <point x="213" y="-10"/>
      <point x="313" y="69"/>
      <point x="324" y="79" type="curve"/>
      <point x="356" y="108"/>
      <point x="386" y="163"/>
      <point x="386" y="228" type="curve"/>
      <point x="386" y="328"/>
      <point x="303" y="400"/>
    </contour>
  </outline>
</glyph>
<glyph name="one" format="1">
  <advance width="274"/>
  <unicode hex="0031"/>
  <outline>
    <contour>
      <point x="95" y="37" type="curve"/>
      <point x="50" y="5" type="line"/>
      <point x="50" y="0" type="line"/>
      <point x="199" y="0" type="line"/>
      <point x="234" y="0" type="line"/>
      <point x="234" y="15" type="line"/>
      <point x="214" y="27"/>
      <point x="199" y="50"/>
      <point x="199" y="60" type="curve"/>
      <point x="199" y="381" type="line"/>
      <point x="209" y="400" type="line"/>
      <point x="183" y="411" type="line"/>
      <point x="64" y="292" type="line"/>
      <point x="64" y="277" type="line"/>
      <point x="119" y="250" type="line"/>
      <point x="119" y="63" type="line" smooth="yes"/>
      <point x="119" y="55"/>
      <point x="117" y="53"/>
    </contour>
  </outline>
</glyph>
<glyph name="two" format="1">
  <advance width="359"/>
  <unicode hex="0032"/>
  <outline>
    <contour>
      <point x="37" y="314" type="curve"/>
      <point x="30" y="322" type="line"/>
      <point x="115" y="407" type="line"/>
      <point x="128" y="409"/>
      <point x="149" y="410"/>
      <point x="174" y="410" type="curve"/>
      <point x="239" y="410"/>
      <point x="293" y="366"/>
      <point x="293" y="301" type="curve"/>
      <point x="293" y="218"/>
      <point x="238" y="158"/>
      <point x="159" y="85" type="curve"/>
      <point x="204" y="85"/>
      <point x="259" y="70"/>
      <point x="278" y="70" type="curve"/>
      <point x="298" y="70"/>
      <point x="301" y="73"/>
      <point x="310" y="80" type="curve"/>
      <point x="324" y="73" type="line"/>
      <point x="274" y="-10" type="line"/>
      <point x="238" y="-10"/>
      <point x="175" y="22"/>
      <point x="101" y="22" type="curve"/>
      <point x="65" y="-10" type="line"/>
      <point x="33" y="12" type="line"/>
      <point x="162" y="141"/>
      <point x="208" y="202"/>
      <point x="208" y="260" type="curve"/>
      <point x="208" y="310"/>
      <point x="166" y="325"/>
      <point x="116" y="325" type="curve"/>
      <point x="83" y="325"/>
      <point x="55" y="320"/>
    </contour>
  </outline>
</glyph>
<glyph name="three" format="1">
  <advance width="352"/>
  <unicode hex="0033"/>
  <outline>
    <contour>
      <point x="72" y="406" type="curve"/>
      <point x="52" y="381"/>
      <point x="36" y="349"/>
      <point x="20" y="315" type="curve"/>
      <point x="37" y="311" type="line"/>
      <point x="50" y="327"/>
      <point x="138" y="325"/>
      <point x="188" y="325" type="curve"/>
      <point x="103" y="186" type="line"/>
      <point x="107" y="173" type="line"/>
      <point x="167" y="173"/>
      <point x="227" y="148"/>
      <point x="227" y="88" type="curve"/>
      <point x="227" y="49"/>
      <point x="194" y="-5"/>
      <point x="158" y="-5" type="curve"/>
      <point x="105" y="-5"/>
      <point x="84" y="20"/>
      <point x="65" y="35" type="curve"/>
      <point x="10" y="-16" type="line"/>
      <point x="10" y="-21" type="line"/>
      <point x="28" y="-39"/>
      <point x="52" y="-50"/>
      <point x="99" y="-50" type="curve"/>
      <point x="199" y="-50"/>
      <point x="302" y="33"/>
      <point x="302" y="123" type="curve"/>
      <point x="302" y="188"/>
      <point x="251" y="219"/>
      <point x="188" y="236" type="curve"/>
      <point x="284" y="400" type="line"/>
      <point x="279" y="407" type="line"/>
      <point x="254" y="402"/>
      <point x="221" y="400"/>
      <point x="197" y="400" type="curve"/>
      <point x="174" y="400"/>
      <point x="104" y="403"/>
    </contour>
  </outline>
</glyph>
<glyph name="four" format="1">
  <advance width="458"/>
  <unicode hex="0034"/>
  <outline>
    <contour>
      <point x="223" y="-112" type="curve"/>
      <point x="223" y="266" type="line"/>
      <point x="82" y="65" type="line"/>
      <point x="317" y="65" type="line" smooth="yes"/>
      <point x="396" y="65"/>
      <point x="393" y="76"/>
      <point x="421" y="102" type="curve"/>
      <point x="438" y="91" type="line"/>
      <point x="401" y="-1" type="line"/>
      <point x="271" y="3"/>
      <point x="137" y="1"/>
      <point x="6" y="-1" type="curve"/>
      <point x="0" y="29" type="line"/>
      <point x="282" y="420" type="line"/>
      <point x="301" y="420" type="line"/>
      <point x="301" y="-112" type="line"/>
      <point x="301" y="-122"/>
      <point x="316" y="-145"/>
      <point x="336" y="-157" type="curve"/>
      <point x="336" y="-172" type="line"/>
      <point x="301" y="-172" type="line"/>
      <point x="223" y="-172" type="line"/>
      <point x="193" y="-172" type="line"/>
      <point x="193" y="-157" type="line"/>
      <point x="213" y="-142"/>
      <point x="223" y="-122"/>
    </contour>
  </outline>
</glyph>
<glyph name="five" format="1">
  <advance width="365"/>
  <unicode hex="0035"/>
  <outline>
    <contour>
      <point x="167" y="325" type="curve"/>
      <point x="146" y="248" type="line"/>
      <point x="237" y="237"/>
      <point x="288" y="187"/>
      <point x="288" y="117" type="curve"/>
      <point x="288" y="22"/>
      <point x="169" y="-57"/>
      <point x="84" y="-57" type="curve"/>
      <point x="57" y="-57"/>
      <point x="35" y="-53"/>
      <point x="10" y="-47" type="curve"/>
      <point x="10" y="-43" type="line"/>
      <point x="81" y="16" type="line"/>
      <point x="103" y="7"/>
      <point x="139" y="0"/>
      <point x="169" y="0" type="curve"/>
      <point x="179" y="0"/>
      <point x="208" y="34"/>
      <point x="208" y="77" type="curve"/>
      <point x="208" y="137"/>
      <point x="154" y="166"/>
      <point x="74" y="173" type="curve"/>
      <point x="71" y="178" type="line"/>
      <point x="139" y="400" type="line"/>
      <point x="147" y="400"/>
      <point x="345" y="400"/>
      <point x="376" y="420" type="curve"/>
      <point x="380" y="415" type="line"/>
      <point x="327" y="334" type="line"/>
      <point x="285" y="328"/>
      <point x="210" y="325"/>
    </contour>
  </outline>
</glyph>
<glyph name="six" format="1">
  <advance width="391"/>
  <unicode hex="0036"/>
  <outline>
    <contour>
      <point x="201" y="-10" type="curve"/>
      <point x="247" y="75" type="line"/>
      <point x="157" y="75"/>
      <point x="102" y="127"/>
      <point x="102" y="217" type="curve"/>
      <point x="102" y="337"/>
      <point x="247" y="432"/>
      <point x="379" y="479" type="curve"/>
      <point x="381" y="489" type="line"/>
      <point x="308" y="515" type="line"/>
      <point x="159" y="445"/>
      <point x="30" y="334"/>
      <point x="30" y="192" type="curve"/>
      <point x="30" y="72"/>
      <point x="111" y="0"/>
    </contour>
    <contour>
      <point x="132" y="328" type="curve"/>
      <point x="105" y="269" type="line"/>
      <point x="195" y="269"/>
      <point x="285" y="233"/>
      <point x="285" y="143" type="curve"/>
      <point x="285" y="103"/>
      <point x="262" y="75"/>
      <point x="247" y="75" type="curve"/>
      <point x="201" y="-10" type="line"/>
      <point x="285" y="40"/>
      <point x="355" y="98"/>
      <point x="355" y="168" type="curve"/>
      <point x="355" y="278"/>
      <point x="232" y="328"/>
    </contour>
  </outline>
</glyph>
<glyph name="seven" format="1">
  <advance width="339"/>
  <unicode hex="0037"/>
  <outline>
    <contour>
      <point x="84" y="406" type="curve"/>
      <point x="64" y="381"/>
      <point x="48" y="349"/>
      <point x="32" y="315" type="curve"/>
      <point x="49" y="311" type="line"/>
      <point x="62" y="327"/>
      <point x="158" y="325"/>
      <point x="208" y="325" type="curve"/>
      <point x="121" y="28" type="line" smooth="yes"/>
      <point x="102" y="-38"/>
      <point x="70" y="-32"/>
      <point x="22" y="8" type="curve"/>
      <point x="9" y="8" type="line"/>
      <point x="-5" y="-79" type="line"/>
      <point x="98" y="-80"/>
      <point x="159" y="-41"/>
      <point x="191" y="26" type="curve"/>
      <point x="247" y="145"/>
      <point x="254" y="283"/>
      <point x="339" y="400" type="curve"/>
      <point x="334" y="407" type="line"/>
      <point x="309" y="402"/>
      <point x="273" y="400"/>
      <point x="249" y="400" type="curve"/>
      <point x="206" y="400"/>
      <point x="116" y="403"/>
    </contour>
  </outline>
</glyph>
<glyph name="eight" format="1">
  <advance width="371"/>
  <unicode hex="0038"/>
  <outline>
    <contour>
      <point x="180" y="-10" type="curve"/>
      <point x="199" y="-10"/>
      <point x="289" y="56"/>
      <point x="305" y="69" type="curve"/>
      <point x="325" y="88"/>
      <point x="341" y="128"/>
      <point x="341" y="161" type="curve"/>
      <point x="341" y="221"/>
      <point x="307" y="268"/>
      <point x="254" y="288" type="curve"/>
      <point x="287" y="318"/>
      <point x="307" y="362"/>
      <point x="307" y="398" type="curve"/>
      <point x="307" y="456"/>
      <point x="260" y="515"/>
      <point x="202" y="515" type="curve"/>
      <point x="187" y="515"/>
      <point x="115" y="465"/>
      <point x="83" y="439" type="curve"/>
      <point x="69" y="429"/>
      <point x="48" y="391"/>
      <point x="48" y="355" type="curve"/>
      <point x="48" y="316"/>
      <point x="66" y="289"/>
      <point x="104" y="260" type="curve"/>
      <point x="57" y="219"/>
      <point x="30" y="175"/>
      <point x="30" y="128" type="curve"/>
      <point x="30" y="51"/>
      <point x="104" y="-10"/>
    </contour>
    <contour>
      <point x="276" y="132" type="curve"/>
      <point x="276" y="111"/>
      <point x="255" y="71"/>
      <point x="240" y="71" type="curve"/>
      <point x="159" y="71"/>
      <point x="95" y="104"/>
      <point x="95" y="171" type="curve"/>
      <point x="95" y="209"/>
      <point x="132" y="243"/>
      <point x="142" y="243" type="curve"/>
      <point x="200" y="234"/>
      <point x="276" y="199"/>
    </contour>
    <contour>
      <point x="242" y="359" type="curve"/>
      <point x="242" y="325"/>
      <point x="219" y="294"/>
      <point x="210" y="294" type="curve"/>
      <point x="162" y="294"/>
      <point x="113" y="321"/>
      <point x="113" y="379" type="curve"/>
      <point x="113" y="410"/>
      <point x="131" y="443"/>
      <point x="140" y="443" type="curve"/>
      <point x="188" y="443"/>
      <point x="242" y="407"/>
    </contour>
  </outline>
</glyph>
<glyph name="nine" format="1">
  <advance width="388"/>
  <unicode hex="0039"/>
  <outline>
    <contour>
      <point x="179" y="410" type="curve"/>
      <point x="128" y="325" type="line"/>
      <point x="188" y="325"/>
      <point x="263" y="273"/>
      <point x="263" y="203" type="curve"/>
      <point x="263" y="93"/>
      <point x="90" y="-48"/>
      <point x="30" y="-92" type="curve"/>
      <point x="32" y="-100" type="line"/>
      <point x="117" y="-100" type="line"/>
      <point x="196" y="-34"/>
      <point x="338" y="84"/>
      <point x="338" y="218" type="curve"/>
      <point x="338" y="298"/>
      <point x="279" y="390"/>
    </contour>
    <contour>
      <point x="241" y="65" type="curve"/>
      <point x="275" y="131" type="line"/>
      <point x="195" y="141"/>
      <point x="105" y="167"/>
      <point x="105" y="267" type="curve"/>
      <point x="105" y="287"/>
      <point x="110" y="312"/>
      <point x="128" y="325" type="curve"/>
      <point x="179" y="410" type="line"/>
      <point x="169" y="410"/>
      <point x="107" y="353"/>
      <point x="96" y="343" type="curve"/>
      <point x="59" y="310"/>
      <point x="40" y="257"/>
      <point x="40" y="212" type="curve"/>
      <point x="40" y="122"/>
      <point x="131" y="75"/>
    </contour>
  </outline>
</glyph>
<glyph name="question" format="1">
  <advance width="301"/>
  <unicode hex="003F"/>
  <outline>
    <contour>
      <point x="121" y="710" type="curve"/>
      <point x="0" y="565" type="line"/>
      <point x="10" y="552" type="line"/>
      <point x="46" y="576"/>
      <point x="72" y="590"/>
      <point x="98" y="590" type="curve"/>
      <point x="129" y="590"/>
      <point x="174" y="574"/>
      <point x="174" y="502" type="curve"/>
      <point x="174" y="444"/>
      <point x="129" y="307"/>
      <point x="129" y="230" type="curve"/>
      <point x="129" y="163"/>
      <point x="181" y="135"/>
      <point x="195" y="135" type="curve"/>
      <point x="261" y="213" type="line"/>
      <point x="248" y="226" type="line"/>
      <point x="238" y="214"/>
      <point x="225" y="206"/>
      <point x="214" y="206" type="curve"/>
      <point x="197" y="206"/>
      <point x="179" y="231"/>
      <point x="179" y="269" type="curve"/>
      <point x="179" y="352"/>
      <point x="249" y="486"/>
      <point x="249" y="564" type="curve"/>
      <point x="249" y="662"/>
      <point x="193" y="703"/>
    </contour>
    <component base="period" xOffset="73"/>
  </outline>
</glyph>
<glyph name="A" format="1">
  <advance width="666"/>
  <unicode hex="0041"/>
  <outline>
    <contour>
      <point x="484" y="325" type="line"/>
      <point x="199" y="325" type="line"/>
      <point x="199" y="285" type="line"/>
      <point x="294" y="285"/>
      <point x="389" y="285"/>
      <point x="484" y="285" type="curve"/>
    </contour>
    <contour>
      <point x="493" y="20" type="curve"/>
      <point x="493" y="0" type="line"/>
      <point x="656" y="0" type="line"/>
      <point x="661" y="10" type="line"/>
      <point x="569" y="243"/>
      <point x="407" y="620"/>
      <point x="399" y="710" type="curve"/>
      <point x="369" y="710" type="line"/>
      <point x="5" y="10" type="line"/>
      <point x="10" y="0" type="line"/>
      <point x="210" y="0" type="line"/>
      <point x="210" y="20" type="line"/>
      <point x="140" y="40"/>
      <point x="115" y="66"/>
      <point x="131" y="102" type="curve"/>
      <point x="365" y="618" type="line"/>
      <point x="333" y="603" type="line"/>
      <point x="415" y="421"/>
      <point x="468" y="261"/>
      <point x="523" y="102" type="curve"/>
      <point x="539" y="56"/>
      <point x="529" y="40"/>
    </contour>
  </outline>
</glyph>
<glyph name="B" format="1">
  <advance width="596"/>
  <unicode hex="0042"/>
  <outline>
    <contour>
      <point x="30" y="3" type="curve"/>
      <point x="42" y="-15" type="line"/>
      <point x="64" y="-6"/>
      <point x="99" y="0"/>
      <point x="134" y="0" type="curve"/>
      <point x="184" y="0"/>
      <point x="233" y="-10"/>
      <point x="283" y="-10" type="curve"/>
      <point x="423" y="-10"/>
      <point x="576" y="68"/>
      <point x="576" y="208" type="curve"/>
      <point x="576" y="332"/>
      <point x="477" y="391"/>
      <point x="363" y="407" type="curve"/>
      <point x="425" y="427"/>
      <point x="499" y="482"/>
      <point x="499" y="568" type="curve"/>
      <point x="499" y="648"/>
      <point x="430" y="710"/>
      <point x="340" y="710" type="curve"/>
      <point x="214" y="710"/>
      <point x="126" y="670"/>
      <point x="20" y="660" type="curve"/>
      <point x="20" y="634" type="line"/>
      <point x="53" y="634"/>
      <point x="74" y="601"/>
      <point x="76" y="571" type="curve"/>
      <point x="86" y="416"/>
      <point x="87" y="251"/>
      <point x="76" y="96" type="curve"/>
      <point x="74" y="69"/>
      <point x="57" y="30"/>
    </contour>
    <contour>
      <point x="298" y="40" type="curve"/>
      <point x="209" y="40"/>
      <point x="166" y="70"/>
      <point x="166" y="133" type="curve"/>
      <point x="166" y="315" type="line" smooth="yes"/>
      <point x="166" y="358"/>
      <point x="202" y="373"/>
      <point x="298" y="373" type="curve"/>
      <point x="398" y="373"/>
      <point x="476" y="308"/>
      <point x="476" y="208" type="curve"/>
      <point x="476" y="108"/>
      <point x="408" y="40"/>
    </contour>
    <contour>
      <point x="255" y="409" type="curve"/>
      <point x="202" y="409"/>
      <point x="163" y="411"/>
      <point x="163" y="451" type="curve"/>
      <point x="163" y="636" type="line" smooth="yes"/>
      <point x="163" y="648"/>
      <point x="214" y="662"/>
      <point x="279" y="662" type="curve"/>
      <point x="339" y="662"/>
      <point x="399" y="622"/>
      <point x="399" y="542" type="curve"/>
      <point x="399" y="457"/>
      <point x="340" y="409"/>
    </contour>
  </outline>
</glyph>
<glyph name="C" format="1">
  <advance width="534"/>
  <unicode hex="0043"/>
  <outline>
    <contour>
      <point x="25" y="345" type="curve"/>
      <point x="25" y="165"/>
      <point x="157" y="-10"/>
      <point x="337" y="-10" type="curve"/>
      <point x="408" y="25"/>
      <point x="465" y="63"/>
      <point x="518" y="103" type="curve"/>
      <point x="518" y="150" type="line"/>
      <point x="513" y="152" type="line"/>
      <point x="468" y="119"/>
      <point x="400" y="90"/>
      <point x="365" y="90" type="curve"/>
      <point x="235" y="90"/>
      <point x="115" y="225"/>
      <point x="115" y="405" type="curve"/>
      <point x="115" y="520"/>
      <point x="163" y="613"/>
      <point x="235" y="635" type="curve"/>
      <point x="292" y="635"/>
      <point x="397" y="588"/>
      <point x="449" y="547" type="curve"/>
      <point x="452" y="547" type="line"/>
      <point x="519" y="652" type="line"/>
      <point x="475" y="680"/>
      <point x="392" y="710"/>
      <point x="342" y="710" type="curve"/>
      <point x="152" y="710"/>
      <point x="25" y="535"/>
    </contour>
  </outline>
</glyph>
<glyph name="D" format="1">
  <advance width="711"/>
  <unicode hex="0044"/>
  <outline>
    <contour>
      <point x="330" y="710" type="curve"/>
      <point x="270" y="710"/>
      <point x="155" y="700"/>
      <point x="105" y="700" type="curve"/>
      <point x="77" y="700"/>
      <point x="60" y="703"/>
      <point x="30" y="710" type="curve"/>
      <point x="20" y="685" type="line"/>
      <point x="41" y="672"/>
      <point x="68" y="628"/>
      <point x="69" y="575" type="curve"/>
      <point x="72" y="417"/>
      <point x="73" y="259"/>
      <point x="69" y="101" type="curve"/>
      <point x="68" y="64"/>
      <point x="50" y="35"/>
      <point x="23" y="8" type="curve"/>
      <point x="35" y="-10" type="line"/>
      <point x="57" y="-1"/>
      <point x="92" y="5"/>
      <point x="127" y="5" type="curve"/>
      <point x="177" y="5"/>
      <point x="273" y="-10"/>
      <point x="323" y="-10" type="curve"/>
      <point x="496" y="-10"/>
      <point x="686" y="89"/>
      <point x="686" y="343" type="curve"/>
      <point x="686" y="553"/>
      <point x="540" y="710"/>
    </contour>
    <contour>
      <point x="337" y="40" type="curve"/>
      <point x="225" y="40"/>
      <point x="166" y="70"/>
      <point x="163" y="160" type="curve"/>
      <point x="159" y="268"/>
      <point x="159" y="466"/>
      <point x="166" y="650" type="curve"/>
      <point x="297" y="650" type="line" smooth="yes"/>
      <point x="467" y="650"/>
      <point x="581" y="543"/>
      <point x="581" y="343" type="curve"/>
      <point x="581" y="202"/>
      <point x="517" y="40"/>
    </contour>
  </outline>
</glyph>
<glyph name="E" format="1">
  <advance width="454"/>
  <unicode hex="0045"/>
  <outline>
    <contour>
      <point x="162" y="605" type="curve"/>
      <point x="162" y="660" type="line"/>
      <point x="283" y="660" type="line" smooth="yes"/>
      <point x="364" y="660"/>
      <point x="388" y="643"/>
      <point x="414" y="589" type="curve"/>
      <point x="429" y="589" type="line"/>
      <point x="429" y="700" type="line"/>
      <point x="20" y="700" type="line"/>
      <point x="20" y="680" type="line"/>
      <point x="42" y="671"/>
      <point x="70" y="658"/>
      <point x="71" y="605" type="curve"/>
      <point x="74" y="442"/>
      <point x="72" y="273"/>
      <point x="71" y="135" type="curve"/>
      <point x="70" y="42"/>
      <point x="42" y="32"/>
      <point x="20" y="20" type="curve"/>
      <point x="20" y="0" type="line"/>
      <point x="316" y="0" type="line" smooth="yes"/>
      <point x="386" y="0"/>
      <point x="389" y="-20"/>
      <point x="414" y="-56" type="curve"/>
      <point x="429" y="-56" type="line"/>
      <point x="429" y="87" type="line"/>
      <point x="414" y="87" type="line"/>
      <point x="397" y="66"/>
      <point x="386" y="40"/>
      <point x="316" y="40" type="curve"/>
      <point x="264" y="40"/>
      <point x="171" y="30"/>
      <point x="164" y="100" type="curve"/>
      <point x="164" y="99" type="line"/>
      <point x="163" y="109"/>
      <point x="162" y="121"/>
      <point x="162" y="135" type="curve"/>
      <point x="161" y="201"/>
      <point x="161" y="272"/>
      <point x="161" y="347" type="curve"/>
      <point x="316" y="347" type="line" smooth="yes"/>
      <point x="386" y="347"/>
      <point x="389" y="327"/>
      <point x="414" y="291" type="curve"/>
      <point x="429" y="291" type="line"/>
      <point x="429" y="434" type="line"/>
      <point x="414" y="434" type="line"/>
      <point x="401" y="413"/>
      <point x="386" y="387"/>
      <point x="316" y="387" type="curve"/>
      <point x="161" y="387" type="line"/>
      <point x="161" y="457"/>
      <point x="161" y="530"/>
    </contour>
  </outline>
</glyph>
<glyph name="F" format="1">
  <advance width="455"/>
  <unicode hex="0046"/>
  <outline>
    <contour>
      <point x="163" y="605" type="curve"/>
      <point x="163" y="660" type="line"/>
      <point x="284" y="660" type="line" smooth="yes"/>
      <point x="365" y="660"/>
      <point x="389" y="643"/>
      <point x="415" y="589" type="curve"/>
      <point x="430" y="589" type="line"/>
      <point x="430" y="700" type="line"/>
      <point x="20" y="700" type="line"/>
      <point x="20" y="680" type="line"/>
      <point x="42" y="671"/>
      <point x="70" y="658"/>
      <point x="71" y="605" type="curve"/>
      <point x="74" y="442"/>
      <point x="72" y="273"/>
      <point x="71" y="135" type="curve"/>
      <point x="70" y="42"/>
      <point x="42" y="32"/>
      <point x="20" y="20" type="curve"/>
      <point x="20" y="0" type="line"/>
      <point x="242" y="0" type="line"/>
      <point x="241" y="23" type="line"/>
      <point x="188" y="42"/>
      <point x="164" y="55"/>
      <point x="163" y="95" type="curve"/>
      <point x="161" y="182"/>
      <point x="161" y="265"/>
      <point x="161" y="347" type="curve"/>
      <point x="317" y="347" type="line" smooth="yes"/>
      <point x="387" y="347"/>
      <point x="390" y="327"/>
      <point x="415" y="291" type="curve"/>
      <point x="430" y="291" type="line"/>
      <point x="430" y="434" type="line"/>
      <point x="415" y="434" type="line"/>
      <point x="402" y="413"/>
      <point x="387" y="387"/>
      <point x="317" y="387" type="curve"/>
      <point x="161" y="387" type="line"/>
      <point x="161" y="405" type="line" smooth="yes"/>
      <point x="161" y="471"/>
      <point x="162" y="537"/>
    </contour>
  </outline>
</glyph>
<glyph name="G" format="1">
  <advance width="689"/>
  <unicode hex="0047"/>
  <outline>
    <contour>
      <point x="595" y="556" type="curve"/>
      <point x="602" y="556" type="line"/>
      <point x="649" y="650" type="line"/>
      <point x="580" y="686"/>
      <point x="499" y="710"/>
      <point x="419" y="710" type="curve"/>
      <point x="194" y="710"/>
      <point x="25" y="562"/>
      <point x="25" y="347" type="curve"/>
      <point x="25" y="143"/>
      <point x="168" y="-10"/>
      <point x="384" y="-10" type="curve"/>
      <point x="480" y="-10"/>
      <point x="582" y="29"/>
      <point x="626" y="57" type="curve"/>
      <point x="622" y="165"/>
      <point x="622" y="272"/>
      <point x="626" y="380" type="curve"/>
      <point x="379" y="380" type="line"/>
      <point x="337" y="290" type="line"/>
      <point x="350" y="282" type="line"/>
      <point x="383" y="299"/>
      <point x="423" y="300"/>
      <point x="537" y="300" type="curve"/>
      <point x="539" y="226"/>
      <point x="541" y="153"/>
      <point x="531" y="79" type="curve"/>
      <point x="510" y="53"/>
      <point x="470" y="40"/>
      <point x="421" y="40" type="curve"/>
      <point x="231" y="40"/>
      <point x="125" y="170"/>
      <point x="125" y="360" type="curve"/>
      <point x="125" y="530"/>
      <point x="189" y="650"/>
      <point x="347" y="650" type="curve"/>
      <point x="425" y="650"/>
      <point x="526" y="603"/>
    </contour>
  </outline>
</glyph>
<glyph name="H" format="1">
  <advance width="698"/>
  <unicode hex="0048"/>
  <outline>
    <contour>
      <point x="567" y="375" type="line"/>
      <point x="134" y="375" type="line"/>
      <point x="134" y="325" type="line"/>
      <point x="567" y="325" type="line"/>
    </contour>
    <contour>
      <point x="163" y="125" type="curve"/>
      <point x="163" y="0" type="line"/>
      <point x="256" y="0" type="line"/>
      <point x="256" y="21" type="line"/>
      <point x="220" y="32"/>
      <point x="163" y="45"/>
    </contour>
    <contour>
      <point x="627" y="95" type="curve"/>
      <point x="624" y="258"/>
      <point x="623" y="297"/>
      <point x="627" y="435" type="curve"/>
      <point x="630" y="528"/>
      <point x="656" y="538"/>
      <point x="678" y="550" type="curve"/>
      <point x="678" y="570" type="line"/>
      <point x="629" y="570" type="line"/>
      <point x="533" y="570" type="line"/>
      <point x="456" y="570" type="line"/>
      <point x="457" y="547" type="line"/>
      <point x="514" y="532"/>
      <point x="532" y="525"/>
      <point x="535" y="435" type="curve"/>
      <point x="540" y="298"/>
      <point x="540" y="267"/>
      <point x="535" y="95" type="curve"/>
      <point x="533" y="42"/>
      <point x="505" y="33"/>
      <point x="484" y="21" type="curve"/>
      <point x="484" y="0" type="line"/>
      <point x="533" y="0" type="line"/>
      <point x="629" y="0" type="line"/>
      <point x="678" y="0" type="line"/>
      <point x="678" y="20" type="line"/>
      <point x="656" y="29"/>
      <point x="628" y="42"/>
    </contour>
    <component base="I"/>
  </outline>
</glyph>
<glyph name="I" format="1">
  <advance width="262"/>
  <unicode hex="0049"/>
  <outline>
    <contour>
      <point x="71" y="605" type="curve"/>
      <point x="74" y="442"/>
      <point x="72" y="273"/>
      <point x="71" y="135" type="curve"/>
      <point x="70" y="42"/>
      <point x="42" y="32"/>
      <point x="20" y="20" type="curve"/>
      <point x="20" y="0" type="line"/>
      <point x="242" y="0" type="line"/>
      <point x="242" y="23" type="line"/>
      <point x="185" y="38"/>
      <point x="164" y="45"/>
      <point x="163" y="135" type="curve"/>
      <point x="161" y="272"/>
      <point x="161" y="433"/>
      <point x="163" y="605" type="curve"/>
      <point x="164" y="658"/>
      <point x="193" y="667"/>
      <point x="214" y="679" type="curve"/>
      <point x="214" y="700" type="line"/>
      <point x="20" y="700" type="line"/>
      <point x="20" y="680" type="line"/>
      <point x="42" y="671"/>
      <point x="70" y="658"/>
    </contour>
  </outline>
</glyph>
<glyph name="J" format="1">
  <advance width="422"/>
  <unicode hex="004A"/>
  <outline>
    <contour>
      <point x="17" y="563" type="curve"/>
      <point x="10" y="566" type="line"/>
      <point x="12" y="619"/>
      <point x="27" y="689"/>
      <point x="50" y="689" type="curve"/>
      <point x="119" y="689"/>
      <point x="185" y="684"/>
      <point x="243" y="684" type="curve"/>
      <point x="291" y="684"/>
      <point x="342" y="697"/>
      <point x="380" y="710" type="curve"/>
      <point x="392" y="689" type="line"/>
      <point x="309" y="624"/>
      <point x="349" y="283"/>
      <point x="349" y="45" type="curve"/>
      <point x="349" y="-189"/>
      <point x="271" y="-257"/>
      <point x="128" y="-257" type="curve"/>
      <point x="128" y="-226" type="line"/>
      <point x="221" y="-199"/>
      <point x="254" y="-166"/>
      <point x="254" y="-49" type="curve"/>
      <point x="254" y="594" type="line"/>
      <point x="105" y="594" type="line" smooth="yes"/>
      <point x="50" y="594"/>
      <point x="35" y="584"/>
    </contour>
  </outline>
</glyph>
<glyph name="K" format="1">
  <advance width="633"/>
  <unicode hex="004B"/>
  <outline>
    <contour>
      <point x="150" y="409" type="curve"/>
      <point x="150" y="376" type="line"/>
      <point x="204" y="370"/>
      <point x="316" y="252"/>
      <point x="417" y="90" type="curve"/>
      <point x="427" y="74"/>
      <point x="409" y="46"/>
      <point x="368" y="22" type="curve"/>
      <point x="368" y="0" type="line"/>
      <point x="628" y="0" type="line"/>
      <point x="633" y="10" type="line"/>
      <point x="505" y="132"/>
      <point x="381" y="267"/>
      <point x="253" y="405" type="curve"/>
      <point x="326" y="448"/>
      <point x="499" y="601"/>
      <point x="577" y="690" type="curve"/>
      <point x="572" y="700" type="line"/>
      <point x="352" y="700" type="line"/>
      <point x="352" y="678" type="line"/>
      <point x="385" y="672"/>
      <point x="401" y="653"/>
      <point x="401" y="630" type="curve"/>
      <point x="401" y="580"/>
      <point x="241" y="409"/>
    </contour>
    <component base="I"/>
  </outline>
</glyph>
<glyph name="L" format="1">
  <advance width="540"/>
  <unicode hex="004C"/>
  <outline>
    <contour>
      <point x="515" y="201" type="line"/>
      <point x="493" y="201" type="line"/>
      <point x="489" y="181" type="line" smooth="yes"/>
      <point x="474" y="97"/>
      <point x="449" y="76"/>
      <point x="413" y="67" type="curve"/>
      <point x="355" y="53"/>
      <point x="259" y="40"/>
      <point x="230" y="40" type="curve"/>
      <point x="186" y="40"/>
      <point x="164" y="69"/>
      <point x="164" y="100" type="curve"/>
      <point x="164" y="99" type="line"/>
      <point x="163" y="109"/>
      <point x="162" y="121"/>
      <point x="162" y="135" type="curve"/>
      <point x="160" y="272"/>
      <point x="162" y="443"/>
      <point x="162" y="605" type="curve"/>
      <point x="162" y="638"/>
      <point x="207" y="661"/>
      <point x="262" y="680" type="curve"/>
      <point x="262" y="700" type="line"/>
      <point x="20" y="700" type="line"/>
      <point x="20" y="680" type="line"/>
      <point x="42" y="671"/>
      <point x="70" y="658"/>
      <point x="71" y="605" type="curve"/>
      <point x="74" y="442"/>
      <point x="72" y="273"/>
      <point x="71" y="135" type="curve"/>
      <point x="70" y="42"/>
      <point x="42" y="32"/>
      <point x="20" y="20" type="curve"/>
      <point x="20" y="0" type="line"/>
      <point x="515" y="0" type="line"/>
    </contour>
  </outline>
</glyph>
<glyph name="M" format="1">
  <advance width="779"/>
  <unicode hex="004D"/>
  <outline>
    <contour>
      <point x="163" y="20" type="curve"/>
      <point x="160" y="0" type="line"/>
      <point x="20" y="0" type="line"/>
      <point x="15" y="10" type="line"/>
      <point x="82" y="249"/>
      <point x="145" y="480"/>
      <point x="202" y="710" type="curve"/>
      <point x="237" y="710" type="line"/>
      <point x="231" y="675"/>
      <point x="322" y="430"/>
      <point x="400" y="228" type="curve"/>
      <point x="588" y="710" type="line"/>
      <point x="623" y="710" type="line"/>
      <point x="611" y="670"/>
      <point x="712" y="243"/>
      <point x="764" y="10" type="curve"/>
      <point x="759" y="0" type="line"/>
      <point x="596" y="0" type="line"/>
      <point x="593" y="20" type="line"/>
      <point x="619" y="40"/>
      <point x="655" y="61"/>
      <point x="651" y="82" type="curve"/>
      <point x="571" y="520" type="line"/>
      <point x="504" y="349"/>
      <point x="424" y="126"/>
      <point x="396" y="-5" type="curve"/>
      <point x="376" y="-5" type="line"/>
      <point x="321" y="177"/>
      <point x="262" y="356"/>
      <point x="197" y="520" type="curve"/>
      <point x="102" y="90" type="line" smooth="yes"/>
      <point x="95" y="56"/>
      <point x="118" y="40"/>
    </contour>
  </outline>
</glyph>
<glyph name="N" format="1">
  <advance width="709"/>
  <unicode hex="004E"/>
  <outline>
    <contour>
      <point x="569" y="227" type="curve"/>
      <point x="569" y="322" type="line"/>
      <point x="428" y="407"/>
      <point x="291" y="501"/>
      <point x="158" y="603" type="curve"/>
      <point x="158" y="508" type="line"/>
      <point x="298" y="421"/>
      <point x="435" y="327"/>
    </contour>
    <contour>
      <point x="638" y="605" type="curve"/>
      <point x="639" y="658"/>
      <point x="652" y="671"/>
      <point x="674" y="680" type="curve"/>
      <point x="674" y="700" type="line"/>
      <point x="640" y="700" type="line"/>
      <point x="544" y="700" type="line"/>
      <point x="475" y="700" type="line"/>
      <point x="475" y="679" type="line"/>
      <point x="499" y="672"/>
      <point x="545" y="658"/>
      <point x="546" y="605" type="curve"/>
      <point x="548" y="433"/>
      <point x="548" y="272"/>
      <point x="546" y="135" type="curve"/>
      <point x="545" y="65"/>
      <point x="534" y="46"/>
      <point x="487" y="23" type="curve"/>
      <point x="487" y="0" type="line"/>
      <point x="544" y="0" type="line"/>
      <point x="640" y="0" type="line"/>
      <point x="689" y="0" type="line"/>
      <point x="689" y="20" type="line"/>
      <point x="667" y="32"/>
      <point x="639" y="42"/>
      <point x="638" y="135" type="curve"/>
      <point x="637" y="273"/>
      <point x="635" y="442"/>
    </contour>
    <component base="I"/>
  </outline>
</glyph>
<glyph name="O" format="1">
  <advance width="711"/>
  <unicode hex="004F"/>
  <outline>
    <contour>
      <point x="356" y="40" type="curve"/>
      <point x="356" y="-10" type="line"/>
      <point x="156" y="-10"/>
      <point x="25" y="150"/>
      <point x="25" y="340" type="curve"/>
      <point x="25" y="540"/>
      <point x="156" y="710"/>
      <point x="356" y="710" type="curve"/>
      <point x="356" y="660" type="line"/>
      <point x="206" y="660"/>
      <point x="130" y="510"/>
      <point x="130" y="340" type="curve"/>
      <point x="130" y="190"/>
      <point x="206" y="40"/>
    </contour>
    <contour>
      <point x="355" y="-10" type="curve"/>
      <point x="355" y="40" type="line"/>
      <point x="505" y="40"/>
      <point x="581" y="190"/>
      <point x="581" y="340" type="curve"/>
      <point x="581" y="510"/>
      <point x="505" y="660"/>
      <point x="355" y="660" type="curve"/>
      <point x="355" y="710" type="line"/>
      <point x="555" y="710"/>
      <point x="686" y="540"/>
      <point x="686" y="340" type="curve"/>
      <point x="686" y="150"/>
      <point x="555" y="-10"/>
    </contour>
  </outline>
</glyph>
<glyph name="P" format="1">
  <advance width="551"/>
  <unicode hex="0050"/>
  <outline>
    <contour>
      <point x="271" y="700" type="curve"/>
      <point x="20" y="700" type="line"/>
      <point x="20" y="680" type="line"/>
      <point x="42" y="671"/>
      <point x="70" y="658"/>
      <point x="71" y="605" type="curve"/>
      <point x="74" y="442"/>
      <point x="72" y="273"/>
      <point x="71" y="135" type="curve"/>
      <point x="70" y="42"/>
      <point x="42" y="32"/>
      <point x="20" y="20" type="curve"/>
      <point x="20" y="0" type="line"/>
      <point x="262" y="0" type="line"/>
      <point x="262" y="23" type="line"/>
      <point x="205" y="38"/>
      <point x="165" y="55"/>
      <point x="163" y="115" type="curve"/>
      <point x="159" y="227"/>
      <point x="158" y="303"/>
      <point x="163" y="661" type="curve"/>
      <point x="230" y="661" type="line" smooth="yes"/>
      <point x="360" y="661"/>
      <point x="441" y="598"/>
      <point x="441" y="483" type="curve"/>
      <point x="441" y="393"/>
      <point x="388" y="329"/>
      <point x="288" y="329" type="curve"/>
      <point x="241" y="329" type="line"/>
      <point x="249" y="292" type="line"/>
      <point x="310" y="292" type="line" smooth="yes"/>
      <point x="420" y="292"/>
      <point x="541" y="373"/>
      <point x="541" y="483" type="curve"/>
      <point x="541" y="613"/>
      <point x="423" y="700"/>
    </contour>
  </outline>
</glyph>
<glyph name="Q" format="1">
  <advance width="719"/>
  <unicode hex="0051"/>
  <outline>
    <contour>
      <point x="258" y="13" type="curve"/>
      <point x="380" y="38" type="line"/>
      <point x="570" y="-28"/>
      <point x="712" y="-145"/>
      <point x="794" y="-145" type="curve"/>
      <point x="842" y="-145"/>
      <point x="960" y="-101"/>
      <point x="1052" y="-54" type="curve"/>
      <point x="1069" y="-86" type="line"/>
      <point x="902" y="-181"/>
      <point x="793" y="-230"/>
      <point x="736" y="-230" type="curve"/>
      <point x="702" y="-230"/>
      <point x="662" y="-214"/>
      <point x="595" y="-173" type="curve"/>
      <point x="511" y="-122"/>
      <point x="368" y="-32"/>
    </contour>
    <component base="O"/>
  </outline>
</glyph>
<glyph name="R" format="1">
  <advance width="613"/>
  <unicode hex="0052"/>
  <outline>
    <contour>
      <point x="330" y="344" type="curve"/>
      <point x="403" y="364"/>
      <point x="484" y="423"/>
      <point x="484" y="523" type="curve"/>
      <point x="484" y="628"/>
      <point x="387" y="710"/>
      <point x="277" y="710" type="curve"/>
      <point x="193" y="710"/>
      <point x="127" y="700"/>
      <point x="20" y="700" type="curve"/>
      <point x="20" y="680" type="line"/>
      <point x="42" y="671"/>
      <point x="70" y="658"/>
      <point x="71" y="605" type="curve"/>
      <point x="74" y="442"/>
      <point x="73" y="273"/>
      <point x="71" y="135" type="curve"/>
      <point x="70" y="52"/>
      <point x="42" y="32"/>
      <point x="20" y="20" type="curve"/>
      <point x="20" y="0" type="line"/>
      <point x="211" y="0" type="line"/>
      <point x="211" y="20" type="line"/>
      <point x="184" y="32"/>
      <point x="163" y="45"/>
      <point x="162" y="135" type="curve"/>
      <point x="161" y="198"/>
      <point x="161" y="271"/>
      <point x="161" y="357" type="curve"/>
      <point x="161" y="354" type="line"/>
      <point x="184" y="340"/>
      <point x="214" y="334"/>
      <point x="248" y="334" type="curve"/>
      <point x="428" y="90" type="line" smooth="yes"/>
      <point x="447" y="64"/>
      <point x="450" y="40"/>
      <point x="398" y="20" type="curve"/>
      <point x="398" y="0" type="line"/>
      <point x="618" y="0" type="line"/>
      <point x="623" y="10" type="line"/>
      <point x="529" y="101"/>
      <point x="404" y="244"/>
    </contour>
    <contour>
      <point x="166" y="408" type="curve"/>
      <point x="166" y="657" type="line"/>
      <point x="193" y="666"/>
      <point x="223" y="670"/>
      <point x="261" y="670" type="curve"/>
      <point x="341" y="670"/>
      <point x="384" y="604"/>
      <point x="384" y="523" type="curve"/>
      <point x="384" y="447"/>
      <point x="335" y="382"/>
      <point x="261" y="382" type="curve"/>
      <point x="223" y="382"/>
      <point x="187" y="393"/>
    </contour>
  </outline>
</glyph>
<glyph name="S" format="1">
  <advance width="582"/>
  <unicode hex="0053"/>
  <outline>
    <contour>
      <point x="452" y="549" type="curve"/>
      <point x="462" y="547" type="line"/>
      <point x="494" y="601"/>
      <point x="524" y="647"/>
      <point x="552" y="689" type="curve"/>
      <point x="518" y="712" type="line"/>
      <point x="474" y="662" type="line"/>
      <point x="419" y="695"/>
      <point x="369" y="710"/>
      <point x="300" y="710" type="curve"/>
      <point x="187" y="710"/>
      <point x="88" y="631"/>
      <point x="88" y="532" type="curve"/>
      <point x="88" y="430"/>
      <point x="155" y="367"/>
      <point x="287" y="324" type="curve"/>
      <point x="401" y="287"/>
      <point x="459" y="244"/>
      <point x="459" y="174" type="curve"/>
      <point x="459" y="90"/>
      <point x="402" y="53"/>
      <point x="328" y="53" type="curve"/>
      <point x="266" y="53"/>
      <point x="171" y="105"/>
      <point x="134" y="178" type="curve"/>
      <point x="129" y="178" type="line"/>
      <point x="107" y="127"/>
      <point x="74" y="72"/>
      <point x="30" y="13" type="curve"/>
      <point x="60" y="-10" type="line"/>
      <point x="123" y="52" type="line"/>
      <point x="152" y="30"/>
      <point x="224" y="-10"/>
      <point x="310" y="-10" type="curve"/>
      <point x="402" y="-10"/>
      <point x="539" y="63"/>
      <point x="539" y="208" type="curve"/>
      <point x="539" y="311"/>
      <point x="462" y="374"/>
      <point x="351" y="410" type="curve"/>
      <point x="236" y="447"/>
      <point x="178" y="480"/>
      <point x="178" y="556" type="curve"/>
      <point x="178" y="613"/>
      <point x="208" y="651"/>
      <point x="276" y="651" type="curve"/>
      <point x="330" y="651"/>
      <point x="407" y="610"/>
    </contour>
  </outline>
</glyph>
<glyph name="T" format="1">
  <advance width="666"/>
  <unicode hex="0054"/>
  <outline>
    <contour>
      <point x="89" y="537" type="curve"/>
      <point x="84" y="531" type="line"/>
      <point x="39" y="531"/>
      <point x="0" y="580"/>
      <point x="0" y="621" type="curve"/>
      <point x="0" y="672"/>
      <point x="64" y="695"/>
      <point x="123" y="695" type="curve"/>
      <point x="213" y="695"/>
      <point x="412" y="690"/>
      <point x="512" y="690" type="curve"/>
      <point x="571" y="690"/>
      <point x="622" y="700"/>
      <point x="651" y="725" type="curve"/>
      <point x="666" y="713" type="line"/>
      <point x="606" y="610" type="line"/>
      <point x="442" y="608"/>
      <point x="207" y="616"/>
      <point x="103" y="616" type="curve"/>
      <point x="65" y="616"/>
      <point x="73" y="551"/>
    </contour>
    <contour>
      <point x="290" y="605" type="curve"/>
      <point x="289" y="658"/>
      <point x="261" y="651"/>
      <point x="239" y="660" type="curve"/>
      <point x="239" y="680" type="line"/>
      <point x="432" y="680" type="line"/>
      <point x="432" y="659" type="line"/>
      <point x="411" y="647"/>
      <point x="382" y="658"/>
      <point x="381" y="605" type="curve"/>
      <point x="378" y="433"/>
      <point x="379" y="272"/>
      <point x="381" y="135" type="curve"/>
      <point x="382" y="45"/>
      <point x="403" y="48"/>
      <point x="460" y="23" type="curve"/>
      <point x="460" y="0" type="line"/>
      <point x="239" y="0" type="line"/>
      <point x="239" y="20" type="line"/>
      <point x="261" y="32"/>
      <point x="289" y="42"/>
      <point x="290" y="135" type="curve"/>
      <point x="291" y="273"/>
      <point x="293" y="442"/>
    </contour>
  </outline>
</glyph>
<glyph name="U" format="1">
  <advance width="703"/>
  <unicode hex="0055"/>
  <outline>
    <contour>
      <point x="511" y="83" type="curve"/>
      <point x="511" y="133" type="line"/>
      <point x="472" y="105"/>
      <point x="403" y="60"/>
      <point x="313" y="60" type="curve"/>
      <point x="213" y="60"/>
      <point x="172" y="112"/>
      <point x="165" y="232" type="curve"/>
      <point x="158" y="361"/>
      <point x="162" y="490"/>
      <point x="167" y="599" type="curve"/>
      <point x="169" y="644"/>
      <point x="181" y="658"/>
      <point x="208" y="679" type="curve"/>
      <point x="208" y="700" type="line"/>
      <point x="20" y="700" type="line"/>
      <point x="20" y="680" type="line"/>
      <point x="41" y="667"/>
      <point x="70" y="639"/>
      <point x="70" y="590" type="curve"/>
      <point x="70" y="436"/>
      <point x="62" y="338"/>
      <point x="62" y="212" type="curve"/>
      <point x="62" y="72"/>
      <point x="134" y="-10"/>
      <point x="260" y="-10" type="curve"/>
      <point x="362" y="-10"/>
      <point x="442" y="43"/>
    </contour>
    <contour>
      <point x="508" y="605" type="curve"/>
      <point x="513" y="344"/>
      <point x="513" y="209"/>
      <point x="496" y="0" type="curve"/>
      <point x="683" y="0" type="line"/>
      <point x="683" y="23" type="line"/>
      <point x="626" y="38"/>
      <point x="613" y="65"/>
      <point x="609" y="135" type="curve"/>
      <point x="601" y="272"/>
      <point x="606" y="433"/>
      <point x="608" y="545" type="curve"/>
      <point x="610" y="638"/>
      <point x="639" y="667"/>
      <point x="660" y="679" type="curve"/>
      <point x="660" y="700" type="line"/>
      <point x="457" y="700" type="line"/>
      <point x="457" y="680" type="line"/>
      <point x="479" y="671"/>
      <point x="507" y="658"/>
    </contour>
  </outline>
</glyph>
<glyph name="V" format="1">
  <advance width="729"/>
  <unicode hex="0056"/>
  <outline>
    <contour>
      <point x="15" y="700" type="line"/>
      <point x="215" y="700" type="line"/>
      <point x="215" y="675" type="line"/>
      <point x="164" y="645"/>
      <point x="147" y="614"/>
      <point x="166" y="571" type="curve"/>
      <point x="231" y="420"/>
      <point x="309" y="275"/>
      <point x="363" y="127" type="curve"/>
      <point x="551" y="567" type="line" smooth="yes"/>
      <point x="575" y="622"/>
      <point x="541" y="652"/>
      <point x="494" y="675" type="curve"/>
      <point x="494" y="700" type="line"/>
      <point x="719" y="700" type="line"/>
      <point x="724" y="690" type="line"/>
      <point x="586" y="469"/>
      <point x="379" y="67"/>
      <point x="369" y="-10" type="curve"/>
      <point x="324" y="-10" type="line"/>
      <point x="10" y="690" type="line"/>
    </contour>
  </outline>
</glyph>
<glyph name="W" format="1">
  <advance width="842"/>
  <unicode hex="0057"/>
  <outline>
    <contour>
      <point x="148" y="594" type="curve"/>
      <point x="269" y="200" type="line"/>
      <point x="302" y="333"/>
      <point x="353" y="466"/>
      <point x="389" y="599" type="curve"/>
      <point x="382" y="627"/>
      <point x="365" y="670"/>
      <point x="339" y="680" type="curve"/>
      <point x="339" y="700" type="line"/>
      <point x="551" y="700" type="line"/>
      <point x="551" y="680" type="line"/>
      <point x="520" y="662"/>
      <point x="489" y="635"/>
      <point x="502" y="594" type="curve"/>
      <point x="622" y="200" type="line"/>
      <point x="662" y="334"/>
      <point x="713" y="469"/>
      <point x="739" y="585" type="curve"/>
      <point x="748" y="627"/>
      <point x="713" y="660"/>
      <point x="668" y="680" type="curve"/>
      <point x="668" y="700" type="line"/>
      <point x="832" y="700" type="line"/>
      <point x="837" y="691" type="line"/>
      <point x="768" y="457"/>
      <point x="669" y="224"/>
      <point x="630" y="-10" type="curve"/>
      <point x="595" y="-10" type="line"/>
      <point x="543" y="175"/>
      <point x="484" y="354"/>
      <point x="416" y="528" type="curve"/>
      <point x="368" y="349"/>
      <point x="290" y="169"/>
      <point x="272" y="-10" type="curve"/>
      <point x="237" y="-10" type="line"/>
      <point x="169" y="224"/>
      <point x="93" y="458"/>
      <point x="10" y="690" type="curve"/>
      <point x="15" y="700" type="line"/>
      <point x="195" y="700" type="line"/>
      <point x="195" y="680" type="line"/>
      <point x="158" y="663"/>
      <point x="134" y="639"/>
    </contour>
  </outline>
</glyph>
<glyph name="X" format="1">
  <advance width="736"/>
  <unicode hex="0058"/>
  <outline>
    <contour>
      <point x="537" y="90" type="curve"/>
      <point x="383" y="287"/>
      <point x="210" y="499"/>
      <point x="30" y="690" type="curve"/>
      <point x="35" y="700" type="line"/>
      <point x="250" y="700" type="line"/>
      <point x="250" y="675" type="line"/>
      <point x="209" y="665"/>
      <point x="197" y="640"/>
      <point x="212" y="622" type="curve"/>
      <point x="459" y="319"/>
      <point x="333" y="462"/>
      <point x="736" y="10" type="curve"/>
      <point x="731" y="0" type="line"/>
      <point x="497" y="0" type="line"/>
      <point x="497" y="25" type="line"/>
      <point x="543" y="35"/>
      <point x="556" y="66"/>
    </contour>
    <contour>
      <point x="337" y="351" type="line"/>
      <point x="367" y="317" type="line"/>
      <point x="160" y="70" type="line" smooth="yes"/>
      <point x="151" y="59"/>
      <point x="205" y="33"/>
      <point x="235" y="23" type="curve"/>
      <point x="235" y="0" type="line"/>
      <point x="5" y="0" type="line"/>
      <point x="0" y="10" type="line"/>
    </contour>
    <contour>
      <point x="709" y="690" type="line"/>
      <point x="411" y="376" type="line"/>
      <point x="388" y="405" type="line"/>
      <point x="555" y="629" type="line" smooth="yes"/>
      <point x="568" y="646"/>
      <point x="520" y="667"/>
      <point x="484" y="677" type="curve"/>
      <point x="484" y="700" type="line"/>
      <point x="704" y="700" type="line"/>
    </contour>
  </outline>
</glyph>
<glyph name="Y" format="1">
  <advance width="624"/>
  <unicode hex="0059"/>
  <outline>
    <contour>
      <point x="619" y="690" type="line"/>
      <point x="346" y="342" type="line"/>
      <point x="256" y="342" type="line"/>
      <point x="5" y="690" type="line"/>
      <point x="10" y="700" type="line"/>
      <point x="224" y="700" type="line"/>
      <point x="224" y="677" type="line"/>
      <point x="173" y="667"/>
      <point x="154" y="658"/>
      <point x="171" y="632" type="curve"/>
      <point x="332" y="388" type="line"/>
      <point x="464" y="599" type="line" smooth="yes"/>
      <point x="491" y="643"/>
      <point x="455" y="663"/>
      <point x="410" y="677" type="curve"/>
      <point x="410" y="700" type="line"/>
      <point x="614" y="700" type="line"/>
    </contour>
    <contour>
      <point x="255" y="365" type="curve"/>
      <point x="347" y="365" type="line"/>
      <point x="345" y="303"/>
      <point x="341" y="272"/>
      <point x="347" y="135" type="curve"/>
      <point x="351" y="45"/>
      <point x="369" y="38"/>
      <point x="426" y="23" type="curve"/>
      <point x="426" y="0" type="line"/>
      <point x="204" y="0" type="line"/>
      <point x="204" y="20" type="line"/>
      <point x="226" y="32"/>
      <point x="254" y="42"/>
      <point x="255" y="135" type="curve"/>
      <point x="256" y="273"/>
      <point x="258" y="292"/>
    </contour>
  </outline>
</glyph>
<glyph name="Z" format="1">
  <advance width="678"/>
  <unicode hex="005A"/>
  <outline>
    <contour>
      <point x="88" y="700" type="curve"/>
      <point x="148" y="687"/>
      <point x="321" y="677"/>
      <point x="432" y="677" type="curve"/>
      <point x="522" y="677"/>
      <point x="588" y="687"/>
      <point x="634" y="710" type="curve"/>
      <point x="651" y="680" type="line"/>
      <point x="475" y="569"/>
      <point x="281" y="235"/>
      <point x="185" y="109" type="curve"/>
      <point x="324" y="109"/>
      <point x="480" y="82"/>
      <point x="530" y="82" type="curve"/>
      <point x="599" y="82"/>
      <point x="617" y="116"/>
      <point x="636" y="156" type="curve"/>
      <point x="668" y="147" type="line"/>
      <point x="656" y="74"/>
      <point x="603" y="-10"/>
      <point x="525" y="-10" type="curve"/>
      <point x="451" y="-10"/>
      <point x="262" y="33"/>
      <point x="160" y="33" type="curve"/>
      <point x="104" y="33"/>
      <point x="71" y="19"/>
      <point x="24" y="-10" type="curve"/>
      <point x="0" y="24" type="line"/>
      <point x="178" y="137"/>
      <point x="338" y="471"/>
      <point x="480" y="606" type="curve"/>
      <point x="381" y="568"/>
      <point x="238" y="596"/>
      <point x="135" y="596" type="curve"/>
      <point x="94" y="596"/>
      <point x="78" y="579"/>
      <point x="50" y="536" type="curve"/>
      <point x="17" y="549" type="line"/>
      <point x="34" y="599"/>
      <point x="54" y="652"/>
    </contour>
  </outline>
</glyph>
<glyph name="a" format="1">
  <advance width="396"/>
  <unicode hex="0061"/>
  <outline>
    <contour>
      <point x="62" y="307" type="curve"/>
      <point x="52" y="327" type="line"/>
      <point x="83" y="351"/>
      <point x="187" y="410"/>
      <point x="229" y="410" type="curve"/>
      <point x="279" y="410"/>
      <point x="312" y="370"/>
      <point x="312" y="310" type="curve"/>
      <point x="312" y="111" type="line" smooth="yes"/>
      <point x="312" y="83"/>
      <point x="337" y="75"/>
      <point x="359" y="75" type="curve"/>
      <point x="370" y="75"/>
      <point x="380" y="78"/>
      <point x="386" y="82" type="curve"/>
      <point x="391" y="72" type="line"/>
      <point x="374" y="48"/>
      <point x="323" y="-10"/>
      <point x="303" y="-10" type="curve"/>
      <point x="263" y="-10"/>
      <point x="236" y="46"/>
      <point x="230" y="75" type="curve"/>
      <point x="198" y="48"/>
      <point x="151" y="-10"/>
      <point x="113" y="-10" type="curve"/>
      <point x="53" y="-10"/>
      <point x="25" y="52"/>
      <point x="25" y="112" type="curve"/>
      <point x="25" y="143"/>
      <point x="47" y="167"/>
      <point x="157" y="230" type="curve"/>
      <point x="232" y="273" type="line"/>
      <point x="232" y="278" type="line" smooth="yes"/>
      <point x="232" y="318"/>
      <point x="209" y="350"/>
      <point x="169" y="350" type="curve"/>
      <point x="138" y="350"/>
      <point x="106" y="335"/>
    </contour>
    <contour>
      <point x="232" y="168" type="curve"/>
      <point x="232" y="233" type="line"/>
      <point x="211" y="233"/>
      <point x="176" y="216"/>
      <point x="160" y="208" type="curve"/>
      <point x="130" y="194"/>
      <point x="105" y="166"/>
      <point x="105" y="141" type="curve"/>
      <point x="105" y="101"/>
      <point x="123" y="75"/>
      <point x="163" y="75" type="curve"/>
      <point x="193" y="75"/>
      <point x="232" y="108"/>
    </contour>
  </outline>
</glyph>
<glyph name="b" format="1">
  <advance width="411"/>
  <unicode hex="0062"/>
  <outline>
    <contour>
      <point x="115" y="325" type="line"/>
      <point x="129" y="703" type="line"/>
      <point x="121" y="710" type="line"/>
      <point x="10" y="634" type="line"/>
      <point x="10" y="629" type="line"/>
      <point x="29" y="586"/>
      <point x="38" y="480"/>
      <point x="38" y="410" type="curve"/>
      <point x="38" y="95" type="line"/>
      <point x="71" y="39"/>
      <point x="146" y="-10"/>
      <point x="184" y="-10" type="curve"/>
      <point x="194" y="-10"/>
      <point x="319" y="80"/>
      <point x="340" y="99" type="curve"/>
      <point x="369" y="125"/>
      <point x="391" y="168"/>
      <point x="391" y="225" type="curve"/>
      <point x="391" y="315"/>
      <point x="331" y="400"/>
      <point x="236" y="410" type="curve"/>
    </contour>
    <contour>
      <point x="115" y="170" type="curve"/>
      <point x="115" y="285" type="line"/>
      <point x="125" y="302"/>
      <point x="154" y="325"/>
      <point x="184" y="325" type="curve"/>
      <point x="259" y="325"/>
      <point x="311" y="260"/>
      <point x="311" y="185" type="curve"/>
      <point x="311" y="110"/>
      <point x="241" y="60"/>
      <point x="231" y="60" type="curve"/>
      <point x="183" y="60"/>
      <point x="115" y="118"/>
    </contour>
  </outline>
</glyph>
<glyph name="c" format="1">
  <advance width="285"/>
  <unicode hex="0063"/>
  <outline>
    <contour>
      <point x="179" y="410" type="curve"/>
      <point x="280" y="346" type="line"/>
      <point x="280" y="341" type="line"/>
      <point x="212" y="295" type="line"/>
      <point x="181" y="308"/>
      <point x="134" y="341"/>
      <point x="116" y="350" type="curve"/>
      <point x="106" y="337"/>
      <point x="100" y="330"/>
      <point x="100" y="220" type="curve"/>
      <point x="100" y="182" type="line" smooth="yes"/>
      <point x="100" y="121"/>
      <point x="128" y="75"/>
      <point x="168" y="75" type="curve"/>
      <point x="206" y="75"/>
      <point x="231" y="89"/>
      <point x="265" y="109" type="curve"/>
      <point x="277" y="83" type="line"/>
      <point x="242" y="55"/>
      <point x="163" y="6"/>
      <point x="116" y="-10" type="curve"/>
      <point x="65" y="0"/>
      <point x="20" y="50"/>
      <point x="20" y="124" type="curve"/>
      <point x="20" y="160"/>
      <point x="26" y="287"/>
      <point x="39" y="325" type="curve"/>
      <point x="69" y="357"/>
      <point x="145" y="401"/>
    </contour>
  </outline>
</glyph>
<glyph name="d" format="1">
  <advance width="462"/>
  <unicode hex="0064"/>
  <outline>
    <contour>
      <point x="232" y="607" type="line"/>
      <point x="376" y="708" type="line"/>
      <point x="388" y="700" type="line"/>
      <point x="381" y="642"/>
      <point x="378" y="503"/>
      <point x="378" y="440" type="curve"/>
      <point x="378" y="111" type="line"/>
      <point x="296" y="75" type="line"/>
      <point x="159" y="-10" type="line"/>
      <point x="65" y="13"/>
      <point x="20" y="83"/>
      <point x="20" y="163" type="curve"/>
      <point x="20" y="228"/>
      <point x="57" y="303"/>
      <point x="138" y="339" type="curve"/>
      <point x="298" y="410" type="line"/>
      <point x="298" y="587" type="line"/>
      <point x="232" y="587" type="line"/>
    </contour>
    <contour>
      <point x="302" y="153" type="curve"/>
      <point x="302" y="300" type="line"/>
      <point x="302" y="310"/>
      <point x="238" y="335"/>
      <point x="223" y="335" type="curve"/>
      <point x="192" y="335"/>
      <point x="100" y="306"/>
      <point x="100" y="202" type="curve"/>
      <point x="100" y="132"/>
      <point x="139" y="75"/>
      <point x="209" y="75" type="curve"/>
      <point x="254" y="75"/>
      <point x="302" y="116"/>
    </contour>
    <contour>
      <point x="296" y="75" type="curve"/>
      <point x="378" y="111" type="line"/>
      <point x="378" y="83"/>
      <point x="403" y="75"/>
      <point x="425" y="75" type="curve"/>
      <point x="436" y="75"/>
      <point x="446" y="81"/>
      <point x="452" y="85" type="curve"/>
      <point x="457" y="75" type="line"/>
      <point x="440" y="51"/>
      <point x="389" y="-10"/>
      <point x="369" y="-10" type="curve"/>
      <point x="329" y="-10"/>
      <point x="302" y="46"/>
    </contour>
  </outline>
</glyph>
<glyph name="e" format="1">
  <advance width="309"/>
  <unicode hex="0065"/>
  <outline>
    <contour>
      <point x="294" y="67" type="curve"/>
      <point x="289" y="82" type="line"/>
      <point x="274" y="77"/>
      <point x="253" y="75"/>
      <point x="233" y="75" type="curve"/>
      <point x="198" y="75"/>
      <point x="150" y="94"/>
      <point x="127" y="146" type="curve"/>
      <point x="250" y="249" type="line" smooth="yes"/>
      <point x="272" y="267"/>
      <point x="289" y="295"/>
      <point x="289" y="325" type="curve"/>
      <point x="289" y="377"/>
      <point x="226" y="410"/>
      <point x="196" y="410" type="curve"/>
      <point x="43" y="325" type="line"/>
      <point x="2" y="159"/>
      <point x="63" y="-10"/>
      <point x="174" y="-10" type="curve"/>
      <point x="204" y="-10"/>
      <point x="262" y="35"/>
    </contour>
    <contour>
      <point x="115" y="173" type="curve"/>
      <point x="102" y="227"/>
      <point x="94" y="301"/>
      <point x="126" y="350" type="curve"/>
      <point x="166" y="350"/>
      <point x="209" y="322"/>
      <point x="209" y="282" type="curve"/>
      <point x="209" y="245"/>
      <point x="129" y="183"/>
    </contour>
  </outline>
</glyph>
<glyph name="f" format="1">
  <advance width="275"/>
  <unicode hex="0066"/>
  <outline>
    <contour>
      <point x="74" y="325" type="line"/>
      <point x="32" y="325" type="line"/>
      <point x="30" y="330" type="line"/>
      <point x="75" y="383" type="line"/>
      <point x="75" y="614" type="line" smooth="yes"/>
      <point x="75" y="624"/>
      <point x="203" y="710"/>
      <point x="216" y="710" type="curve"/>
      <point x="253" y="710"/>
      <point x="307" y="686"/>
      <point x="345" y="656" type="curve"/>
      <point x="345" y="653" type="line"/>
      <point x="264" y="596" type="line"/>
      <point x="236" y="623"/>
      <point x="185" y="650"/>
      <point x="152" y="650" type="curve"/>
      <point x="152" y="390" type="line"/>
      <point x="262" y="390" type="line"/>
      <point x="262" y="325" type="line"/>
      <point x="154" y="325" type="line"/>
      <point x="154" y="60" type="line"/>
      <point x="154" y="50"/>
      <point x="169" y="27"/>
      <point x="189" y="15" type="curve"/>
      <point x="189" y="0" type="line"/>
      <point x="154" y="0" type="line"/>
      <point x="74" y="0" type="line"/>
      <point x="44" y="0" type="line"/>
      <point x="44" y="15" type="line"/>
      <point x="64" y="30"/>
      <point x="74" y="50"/>
      <point x="74" y="60" type="curve"/>
    </contour>
  </outline>
</glyph>
<glyph name="g" format="1">
  <advance width="444"/>
  <unicode hex="0067"/>
  <outline>
    <contour>
      <point x="244" y="410" type="curve"/>
      <point x="225" y="410"/>
      <point x="115" y="348"/>
      <point x="107" y="339" type="curve"/>
      <point x="74" y="302"/>
      <point x="37" y="250"/>
      <point x="37" y="187" type="curve"/>
      <point x="37" y="142"/>
      <point x="58" y="95"/>
      <point x="103" y="62" type="curve"/>
      <point x="10" y="-15" type="line"/>
      <point x="38" y="-108"/>
      <point x="149" y="-185"/>
      <point x="225" y="-185" type="curve"/>
      <point x="287" y="-185"/>
      <point x="384" y="-100"/>
      <point x="384" y="-39" type="curve"/>
      <point x="384" y="47"/>
      <point x="312" y="142"/>
      <point x="312" y="210" type="curve"/>
      <point x="312" y="257"/>
      <point x="357" y="300"/>
      <point x="362" y="299" type="curve"/>
      <point x="427" y="281" type="line"/>
      <point x="434" y="290" type="line"/>
      <point x="434" y="362" type="line"/>
      <point x="364" y="383"/>
      <point x="285" y="410"/>
    </contour>
    <contour>
      <point x="238" y="179" type="curve"/>
      <point x="218" y="165"/>
      <point x="210" y="152"/>
      <point x="187" y="152" type="curve"/>
      <point x="142" y="152"/>
      <point x="107" y="187"/>
      <point x="107" y="246" type="curve"/>
      <point x="107" y="304"/>
      <point x="141" y="339"/>
      <point x="161" y="343" type="curve"/>
      <point x="171" y="345"/>
      <point x="274" y="320"/>
      <point x="329" y="307" type="curve"/>
      <point x="285" y="267"/>
      <point x="246" y="214"/>
    </contour>
    <contour>
      <point x="275" y="-135" type="curve"/>
      <point x="198" y="-135"/>
      <point x="110" y="-63"/>
      <point x="110" y="13" type="curve"/>
      <point x="110" y="53"/>
      <point x="138" y="70"/>
      <point x="176" y="104" type="curve"/>
      <point x="232" y="153" type="line"/>
      <point x="232" y="85"/>
      <point x="304" y="5"/>
      <point x="304" y="-76" type="curve"/>
      <point x="304" y="-106"/>
      <point x="291" y="-135"/>
    </contour>
  </outline>
</glyph>
<glyph name="h" format="1">
  <advance width="442"/>
  <unicode hex="0068"/>
  <outline>
    <contour>
      <point x="31" y="644" type="line"/>
      <point x="31" y="639" type="line"/>
      <point x="49" y="585"/>
      <point x="50" y="504"/>
      <point x="50" y="440" type="curve"/>
      <point x="50" y="60" type="line"/>
      <point x="50" y="50"/>
      <point x="40" y="30"/>
      <point x="20" y="15" type="curve"/>
      <point x="20" y="0" type="line"/>
      <point x="50" y="0" type="line"/>
      <point x="130" y="0" type="line"/>
      <point x="165" y="0" type="line"/>
      <point x="165" y="15" type="line"/>
      <point x="145" y="27"/>
      <point x="130" y="50"/>
      <point x="130" y="60" type="curve"/>
      <point x="130" y="272" type="line"/>
      <point x="150" y="295"/>
      <point x="190" y="325"/>
      <point x="229" y="325" type="curve"/>
      <point x="309" y="325"/>
      <point x="357" y="232"/>
      <point x="357" y="152" type="curve"/>
      <point x="357" y="89"/>
      <point x="335" y="39"/>
      <point x="320" y="28" type="curve"/>
      <point x="305" y="17"/>
      <point x="235" y="15"/>
      <point x="214" y="15" type="curve"/>
      <point x="187" y="-60" type="line"/>
      <point x="191" y="-65" type="line"/>
      <point x="264" y="-42"/>
      <point x="343" y="8"/>
      <point x="369" y="37" type="curve"/>
      <point x="394" y="64"/>
      <point x="422" y="141"/>
      <point x="422" y="202" type="curve"/>
      <point x="422" y="337"/>
      <point x="351" y="410"/>
      <point x="260" y="410" type="curve"/>
      <point x="131" y="301" type="line"/>
      <point x="131" y="705" type="line"/>
      <point x="125" y="710" type="line"/>
    </contour>
  </outline>
</glyph>
<glyph name="i" format="1">
  <advance width="229"/>
  <unicode hex="0069"/>
  <outline>
    <contour>
      <point x="15" y="325" type="curve"/>
      <point x="15" y="330" type="line"/>
      <point x="94" y="410" type="line"/>
      <point x="120" y="410"/>
      <point x="151" y="386"/>
      <point x="151" y="350" type="curve"/>
      <point x="151" y="115" type="line" smooth="yes"/>
      <point x="151" y="78"/>
      <point x="179" y="75"/>
      <point x="213" y="75" type="curve"/>
      <point x="224" y="75" type="line"/>
      <point x="224" y="60" type="line"/>
      <point x="124" y="-10" type="line"/>
      <point x="97" y="-3"/>
      <point x="71" y="27"/>
      <point x="71" y="65" type="curve"/>
      <point x="71" y="290" type="line" smooth="yes"/>
      <point x="71" y="317"/>
      <point x="54" y="325"/>
    </contour>
    <contour>
      <point x="86" y="544" type="line"/>
      <point x="112" y="544" type="line"/>
      <point x="174" y="679" type="line"/>
      <point x="170" y="685" type="line"/>
      <point x="102" y="666" type="line"/>
    </contour>
  </outline>
</glyph>
<glyph name="j" format="1">
  <advance width="211"/>
  <unicode hex="006A"/>
  <outline>
    <contour>
      <point x="19" y="316" type="line"/>
      <point x="158" y="410" type="line"/>
      <point x="168" y="403" type="line"/>
      <point x="168" y="-5" type="line" smooth="yes"/>
      <point x="168" y="-138"/>
      <point x="115" y="-211"/>
      <point x="17" y="-257" type="curve"/>
      <point x="0" y="-229" type="line"/>
      <point x="29" y="-215"/>
      <point x="51" y="-194"/>
      <point x="69" y="-159" type="curve"/>
      <point x="89" y="-120"/>
      <point x="88" y="-33"/>
      <point x="88" y="21" type="curve"/>
      <point x="88" y="239" type="line" smooth="yes"/>
      <point x="88" y="289"/>
      <point x="69" y="301"/>
      <point x="19" y="301" type="curve"/>
    </contour>
    <contour>
      <point x="101" y="555" type="line"/>
      <point x="157" y="565" type="line"/>
      <point x="191" y="680" type="line"/>
      <point x="186" y="684" type="line"/>
      <point x="117" y="667" type="line"/>
    </contour>
  </outline>
</glyph>
<glyph name="k" format="1">
  <advance width="372"/>
  <unicode hex="006B"/>
  <outline>
    <contour>
      <point x="147" y="306" type="curve"/>
      <point x="147" y="207" type="line"/>
      <point x="208" y="232"/>
      <point x="236" y="256"/>
      <point x="236" y="275" type="curve"/>
      <point x="236" y="295"/>
      <point x="219" y="325"/>
      <point x="205" y="325" type="curve"/>
      <point x="193" y="325"/>
      <point x="167" y="320"/>
    </contour>
    <contour>
      <point x="146" y="478" type="line"/>
      <point x="146" y="325" type="line"/>
      <point x="268" y="410" type="line"/>
      <point x="292" y="410"/>
      <point x="323" y="332"/>
      <point x="321" y="296" type="curve"/>
      <point x="238" y="231" type="line"/>
      <point x="284" y="198"/>
      <point x="303" y="17"/>
      <point x="357" y="50" type="curve"/>
      <point x="362" y="40" type="line"/>
      <point x="347" y="18"/>
      <point x="301" y="-10"/>
      <point x="280" y="-10" type="curve"/>
      <point x="226" y="-10"/>
      <point x="217" y="190"/>
      <point x="157" y="190" type="curve"/>
      <point x="145" y="190" type="line"/>
      <point x="145" y="60" type="line"/>
      <point x="145" y="50"/>
      <point x="160" y="27"/>
      <point x="180" y="15" type="curve"/>
      <point x="180" y="0" type="line"/>
      <point x="145" y="0" type="line"/>
      <point x="65" y="0" type="line"/>
      <point x="30" y="0" type="line"/>
      <point x="30" y="15" type="line"/>
      <point x="50" y="27"/>
      <point x="65" y="50"/>
      <point x="65" y="60" type="curve"/>
      <point x="65" y="430" type="line" smooth="yes"/>
      <point x="65" y="505"/>
      <point x="63" y="593"/>
      <point x="23" y="623" type="curve"/>
      <point x="21" y="638" type="line"/>
      <point x="139" y="710" type="line"/>
      <point x="146" y="702" type="line"/>
    </contour>
  </outline>
</glyph>
<glyph name="l" format="1">
  <advance width="227"/>
  <unicode hex="006C"/>
  <outline>
    <contour>
      <point x="135" y="130" type="curve"/>
      <point x="135" y="702" type="line"/>
      <point x="128" y="710" type="line"/>
      <point x="10" y="638" type="line"/>
      <point x="12" y="623" type="line"/>
      <point x="52" y="593"/>
      <point x="56" y="480"/>
      <point x="56" y="440" type="curve"/>
      <point x="52" y="94" type="line" smooth="yes"/>
      <point x="51" y="44"/>
      <point x="67" y="4"/>
      <point x="122" y="-10" type="curve"/>
      <point x="222" y="60" type="line"/>
      <point x="222" y="75" type="line"/>
      <point x="182" y="75"/>
      <point x="135" y="80"/>
    </contour>
  </outline>
</glyph>
<glyph name="m" format="1">
  <advance width="615"/>
  <unicode hex="006D"/>
  <outline>
    <contour>
      <point x="160" y="327" type="curve"/>
      <point x="160" y="60" type="line"/>
      <point x="160" y="50"/>
      <point x="175" y="27"/>
      <point x="195" y="15" type="curve"/>
      <point x="195" y="0" type="line"/>
      <point x="160" y="0" type="line"/>
      <point x="80" y="0" type="line"/>
      <point x="50" y="0" type="line"/>
      <point x="50" y="15" type="line"/>
      <point x="70" y="30"/>
      <point x="80" y="50"/>
      <point x="80" y="60" type="curve"/>
      <point x="80" y="280" type="line" smooth="yes"/>
      <point x="80" y="311"/>
      <point x="50" y="325"/>
      <point x="10" y="325" type="curve"/>
      <point x="10" y="340" type="line"/>
      <point x="110" y="410" type="line"/>
      <point x="130" y="400"/>
      <point x="160" y="355"/>
    </contour>
    <contour>
      <point x="360" y="315" type="curve"/>
      <point x="360" y="60" type="line"/>
      <point x="360" y="50"/>
      <point x="375" y="27"/>
      <point x="395" y="15" type="curve"/>
      <point x="395" y="0" type="line"/>
      <point x="360" y="0" type="line"/>
      <point x="280" y="0" type="line"/>
      <point x="250" y="0" type="line"/>
      <point x="250" y="15" type="line"/>
      <point x="270" y="30"/>
      <point x="280" y="50"/>
      <point x="280" y="60" type="curve"/>
      <point x="280" y="290" type="line" smooth="yes"/>
      <point x="280" y="310"/>
      <point x="253" y="340"/>
      <point x="233" y="340" type="curve"/>
      <point x="215" y="340"/>
      <point x="169" y="308"/>
      <point x="156" y="280" type="curve"/>
      <point x="156" y="322" type="line"/>
      <point x="281" y="410" type="line"/>
      <point x="311" y="410"/>
      <point x="360" y="365"/>
    </contour>
    <contour>
      <point x="560" y="315" type="curve"/>
      <point x="560" y="60" type="line"/>
      <point x="560" y="50"/>
      <point x="575" y="27"/>
      <point x="595" y="15" type="curve"/>
      <point x="595" y="0" type="line"/>
      <point x="560" y="0" type="line"/>
      <point x="480" y="0" type="line"/>
      <point x="450" y="0" type="line"/>
      <point x="450" y="15" type="line"/>
      <point x="470" y="30"/>
      <point x="480" y="50"/>
      <point x="480" y="60" type="curve"/>
      <point x="480" y="290" type="line" smooth="yes"/>
      <point x="480" y="310"/>
      <point x="453" y="340"/>
      <point x="433" y="340" type="curve"/>
      <point x="419" y="340"/>
      <point x="360" y="308"/>
      <point x="354" y="280" type="curve"/>
      <point x="354" y="322" type="line"/>
      <point x="484" y="410" type="line"/>
      <point x="514" y="410"/>
      <point x="560" y="365"/>
    </contour>
  </outline>
</glyph>
<glyph name="n" format="1">
  <advance width="410"/>
  <unicode hex="006E"/>
  <outline>
    <contour>
      <point x="10" y="325" type="curve"/>
      <point x="10" y="345" type="line"/>
      <point x="103" y="410" type="line"/>
      <point x="127" y="396"/>
      <point x="144" y="362"/>
      <point x="155" y="325" type="curve"/>
      <point x="277" y="410" type="line"/>
      <point x="327" y="410"/>
      <point x="360" y="355"/>
      <point x="360" y="305" type="curve"/>
      <point x="360" y="60" type="line"/>
      <point x="360" y="50"/>
      <point x="370" y="30"/>
      <point x="390" y="15" type="curve"/>
      <point x="390" y="0" type="line"/>
      <point x="360" y="0" type="line"/>
      <point x="280" y="0" type="line"/>
      <point x="250" y="0" type="line"/>
      <point x="250" y="15" type="line"/>
      <point x="270" y="30"/>
      <point x="280" y="50"/>
      <point x="280" y="60" type="curve"/>
      <point x="280" y="280" type="line" smooth="yes"/>
      <point x="280" y="310"/>
      <point x="259" y="325"/>
      <point x="229" y="325" type="curve"/>
      <point x="199" y="325"/>
      <point x="167" y="307"/>
      <point x="152" y="291" type="curve"/>
      <point x="152" y="60" type="line"/>
      <point x="152" y="50"/>
      <point x="162" y="30"/>
      <point x="182" y="15" type="curve"/>
      <point x="182" y="0" type="line"/>
      <point x="152" y="0" type="line"/>
      <point x="72" y="0" type="line"/>
      <point x="42" y="0" type="line"/>
      <point x="42" y="15" type="line"/>
      <point x="62" y="30"/>
      <point x="72" y="50"/>
      <point x="72" y="60" type="curve"/>
      <point x="72" y="280" type="line" smooth="yes"/>
      <point x="72" y="301"/>
      <point x="50" y="325"/>
    </contour>
  </outline>
</glyph>
<glyph name="o" format="1">
  <advance width="382"/>
  <unicode hex="006F"/>
  <outline>
    <contour>
      <point x="200" y="410" type="curve"/>
      <point x="190" y="410"/>
      <point x="90" y="335"/>
      <point x="79" y="325" type="curve"/>
      <point x="52" y="301"/>
      <point x="20" y="237"/>
      <point x="20" y="182" type="curve"/>
      <point x="20" y="82"/>
      <point x="95" y="-1"/>
      <point x="185" y="-10" type="curve"/>
      <point x="195" y="-10"/>
      <point x="299" y="66"/>
      <point x="307" y="75" type="curve"/>
      <point x="332" y="103"/>
      <point x="362" y="163"/>
      <point x="362" y="218" type="curve"/>
      <point x="362" y="318"/>
      <point x="290" y="401"/>
    </contour>
    <contour>
      <point x="247" y="75" type="curve"/>
      <point x="167" y="75"/>
      <point x="95" y="137"/>
      <point x="95" y="217" type="curve"/>
      <point x="95" y="287"/>
      <point x="127" y="325"/>
      <point x="137" y="325" type="curve"/>
      <point x="217" y="325"/>
      <point x="287" y="263"/>
      <point x="287" y="183" type="curve"/>
      <point x="287" y="113"/>
      <point x="257" y="75"/>
    </contour>
  </outline>
</glyph>
<glyph name="p" format="1">
  <advance width="444"/>
  <unicode hex="0070"/>
  <outline>
    <contour>
      <point x="144" y="425" type="line"/>
      <point x="23" y="340" type="line"/>
      <point x="23" y="325" type="line"/>
      <point x="55" y="323"/>
      <point x="74" y="303"/>
      <point x="74" y="278" type="curve"/>
      <point x="74" y="132" type="line"/>
      <point x="15" y="101" type="line"/>
      <point x="15" y="97" type="line"/>
      <point x="74" y="50" type="line"/>
      <point x="64" y="-257" type="line"/>
      <point x="75" y="-262" type="line"/>
      <point x="115" y="-234"/>
      <point x="150" y="-211"/>
      <point x="199" y="-183" type="curve"/>
      <point x="199" y="-163" type="line"/>
      <point x="150" y="-163" type="line"/>
      <point x="150" y="422" type="line"/>
    </contour>
    <contour>
      <point x="149" y="323" type="line"/>
      <point x="113" y="33" type="line"/>
      <point x="144" y="14"/>
      <point x="198" y="-10"/>
      <point x="231" y="-10" type="curve"/>
      <point x="251" y="-10"/>
      <point x="377" y="91"/>
      <point x="384" y="97" type="curve"/>
      <point x="415" y="125"/>
      <point x="424" y="178"/>
      <point x="424" y="225" type="curve"/>
      <point x="424" y="315"/>
      <point x="371" y="410"/>
      <point x="274" y="410" type="curve"/>
    </contour>
    <contour>
      <point x="150" y="100" type="curve"/>
      <point x="150" y="288" type="line"/>
      <point x="165" y="305"/>
      <point x="202" y="325"/>
      <point x="242" y="325" type="curve"/>
      <point x="309" y="325"/>
      <point x="344" y="260"/>
      <point x="344" y="185" type="curve"/>
      <point x="344" y="110"/>
      <point x="286" y="60"/>
      <point x="276" y="60" type="curve"/>
      <point x="228" y="60"/>
      <point x="181" y="73"/>
    </contour>
  </outline>
</glyph>
<glyph name="q" format="1">
  <advance width="378"/>
  <unicode hex="0071"/>
  <outline>
    <contour>
      <point x="276" y="-250" type="line"/>
      <point x="276" y="284" type="line"/>
      <point x="252" y="303"/>
      <point x="194" y="325"/>
      <point x="160" y="325" type="curve"/>
      <point x="122" y="296"/>
      <point x="97" y="241"/>
      <point x="97" y="181" type="curve"/>
      <point x="97" y="121"/>
      <point x="126" y="75"/>
      <point x="186" y="75" type="curve"/>
      <point x="221" y="75"/>
      <point x="259" y="94"/>
      <point x="278" y="110" type="curve"/>
      <point x="278" y="75" type="line"/>
      <point x="140" y="-10" type="line"/>
      <point x="71" y="-10"/>
      <point x="20" y="63"/>
      <point x="20" y="141" type="curve"/>
      <point x="20" y="198"/>
      <point x="36" y="257"/>
      <point x="105" y="315" type="curve"/>
      <point x="218" y="410" type="line"/>
      <point x="306" y="384" type="line"/>
      <point x="350" y="406" type="line"/>
      <point x="355" y="403" type="line"/>
      <point x="352" y="247"/>
      <point x="352" y="156"/>
      <point x="358" y="-250" type="curve"/>
    </contour>
  </outline>
</glyph>
<glyph name="r" format="1">
  <advance width="274"/>
  <unicode hex="0072"/>
  <outline>
    <contour>
      <point x="142" y="340" type="curve"/>
      <point x="142" y="60" type="line"/>
      <point x="142" y="50"/>
      <point x="157" y="27"/>
      <point x="177" y="15" type="curve"/>
      <point x="177" y="0" type="line"/>
      <point x="142" y="0" type="line"/>
      <point x="62" y="0" type="line"/>
      <point x="32" y="0" type="line"/>
      <point x="32" y="15" type="line"/>
      <point x="52" y="30"/>
      <point x="62" y="50"/>
      <point x="62" y="60" type="curve"/>
      <point x="62" y="291" type="line" smooth="yes"/>
      <point x="62" y="312"/>
      <point x="43" y="325"/>
      <point x="10" y="325" type="curve"/>
      <point x="10" y="345" type="line"/>
      <point x="64" y="410" type="line"/>
      <point x="90" y="402"/>
      <point x="132" y="366"/>
    </contour>
    <contour>
      <point x="135" y="327" type="curve"/>
      <point x="131" y="339" type="line"/>
      <point x="190" y="410" type="line"/>
      <point x="195" y="410" type="line"/>
      <point x="274" y="361" type="line"/>
      <point x="274" y="357" type="line"/>
      <point x="211" y="282" type="line"/>
      <point x="206" y="282" type="line"/>
      <point x="188" y="294"/>
      <point x="160" y="335"/>
      <point x="145" y="335" type="curve"/>
      <point x="141" y="335"/>
      <point x="138" y="329"/>
    </contour>
  </outline>
</glyph>
<glyph name="s" format="1">
  <advance width="293"/>
  <unicode hex="0073"/>
  <outline>
    <contour>
      <point x="81" y="117" type="curve"/>
      <point x="10" y="67" type="line"/>
      <point x="10" y="64" type="line"/>
      <point x="31" y="29"/>
      <point x="77" y="-10"/>
      <point x="127" y="-10" type="curve"/>
      <point x="150" y="-10"/>
      <point x="273" y="59"/>
      <point x="273" y="114" type="curve"/>
      <point x="273" y="157"/>
      <point x="235" y="196"/>
      <point x="185" y="233" type="curve"/>
      <point x="129" y="275"/>
      <point x="91" y="317"/>
      <point x="123" y="347" type="curve"/>
      <point x="143" y="331"/>
      <point x="173" y="309"/>
      <point x="200" y="303" type="curve"/>
      <point x="262" y="350" type="line"/>
      <point x="262" y="355" type="line"/>
      <point x="228" y="366"/>
      <point x="196" y="386"/>
      <point x="176" y="410" type="curve"/>
      <point x="173" y="410" type="line"/>
      <point x="150" y="400"/>
      <point x="38" y="323"/>
      <point x="38" y="281" type="curve"/>
      <point x="38" y="248"/>
      <point x="73" y="211"/>
      <point x="121" y="175" type="curve"/>
      <point x="181" y="130"/>
      <point x="217" y="73"/>
      <point x="199" y="50" type="curve"/>
      <point x="159" y="50"/>
      <point x="106" y="85"/>
    </contour>
  </outline>
</glyph>
<glyph name="t" format="1">
  <advance width="253"/>
  <unicode hex="0074"/>
  <outline>
    <contour>
      <point x="51" y="325" type="line"/>
      <point x="5" y="325" type="line"/>
      <point x="5" y="340" type="line"/>
      <point x="125" y="460" type="line"/>
      <point x="131" y="460" type="line"/>
      <point x="131" y="390" type="line"/>
      <point x="243" y="390" type="line"/>
      <point x="243" y="325" type="line"/>
      <point x="131" y="325" type="line"/>
      <point x="131" y="143" type="line" smooth="yes"/>
      <point x="131" y="78"/>
      <point x="156" y="65"/>
      <point x="225" y="65" type="curve"/>
      <point x="231" y="65" type="line"/>
      <point x="236" y="50" type="line"/>
      <point x="210" y="25"/>
      <point x="152" y="-10"/>
      <point x="127" y="-10" type="curve"/>
      <point x="82" y="-10"/>
      <point x="51" y="30"/>
      <point x="51" y="80" type="curve"/>
    </contour>
  </outline>
</glyph>
<glyph name="u" format="1">
  <advance width="419"/>
  <unicode hex="0075"/>
  <outline>
    <contour>
      <point x="5" y="309" type="curve"/>
      <point x="5" y="319" type="line"/>
      <point x="82" y="410" type="line"/>
      <point x="139" y="385"/>
      <point x="152" y="355"/>
      <point x="152" y="307" type="curve"/>
      <point x="152" y="119" type="line" smooth="yes"/>
      <point x="152" y="79"/>
      <point x="172" y="64"/>
      <point x="192" y="64" type="curve"/>
      <point x="211" y="64"/>
      <point x="270" y="91"/>
      <point x="275" y="99" type="curve"/>
      <point x="275" y="382" type="line"/>
      <point x="351" y="410" type="line"/>
      <point x="355" y="408" type="line"/>
      <point x="355" y="126" type="line"/>
      <point x="275" y="75" type="line"/>
      <point x="245" y="50"/>
      <point x="176" y="-11"/>
      <point x="146" y="-11" type="curve"/>
      <point x="101" y="-11"/>
      <point x="72" y="30"/>
      <point x="72" y="75" type="curve"/>
      <point x="72" y="255" type="line" smooth="yes"/>
      <point x="72" y="297"/>
      <point x="41" y="309"/>
    </contour>
    <contour>
      <point x="275" y="75" type="curve"/>
      <point x="355" y="126" type="line"/>
      <point x="355" y="89"/>
      <point x="384" y="79"/>
      <point x="414" y="75" type="curve"/>
      <point x="414" y="65" type="line"/>
      <point x="356" y="-10" type="line"/>
      <point x="350" y="-10" type="line"/>
      <point x="333" y="-10"/>
      <point x="295" y="31"/>
    </contour>
  </outline>
</glyph>
<glyph name="v" format="1">
  <advance width="449"/>
  <unicode hex="0076"/>
  <outline>
    <contour>
      <point x="130" y="219" type="curve"/>
      <point x="242" y="-10" type="line"/>
      <point x="267" y="-10" type="line"/>
      <point x="413" y="244" type="line" smooth="yes"/>
      <point x="424" y="263"/>
      <point x="429" y="293"/>
      <point x="429" y="310" type="curve"/>
      <point x="429" y="361"/>
      <point x="394" y="410"/>
      <point x="321" y="410" type="curve"/>
      <point x="198" y="273" type="line"/>
      <point x="157" y="357"/>
      <point x="153" y="375"/>
      <point x="63" y="410" type="curve"/>
      <point x="0" y="329" type="line"/>
      <point x="4" y="319" type="line"/>
      <point x="15" y="322"/>
      <point x="31" y="325"/>
      <point x="43" y="325" type="curve"/>
      <point x="72" y="325"/>
      <point x="103" y="275"/>
    </contour>
    <contour>
      <point x="277" y="69" type="line"/>
      <point x="299" y="68" type="line"/>
      <point x="218" y="234" type="line"/>
      <point x="218" y="271"/>
      <point x="266" y="325"/>
      <point x="303" y="325" type="curve"/>
      <point x="338" y="325"/>
      <point x="377" y="281"/>
      <point x="367" y="215" type="curve"/>
    </contour>
  </outline>
</glyph>
<glyph name="w" format="1">
  <advance width="587"/>
  <unicode hex="0077"/>
  <outline>
    <contour>
      <point x="51" y="412" type="curve"/>
      <point x="0" y="332" type="line"/>
      <point x="6" y="323" type="line"/>
      <point x="66" y="326"/>
      <point x="88" y="309"/>
      <point x="110" y="248" type="curve"/>
      <point x="204" y="-10" type="line"/>
      <point x="219" y="-10" type="line"/>
      <point x="330" y="155" type="line"/>
      <point x="400" y="-10" type="line"/>
      <point x="415" y="-10" type="line"/>
      <point x="488" y="101" type="line" smooth="yes"/>
      <point x="548" y="193"/>
      <point x="567" y="232"/>
      <point x="567" y="281" type="curve"/>
      <point x="567" y="322"/>
      <point x="540" y="410"/>
      <point x="474" y="410" type="curve"/>
      <point x="365" y="272" type="line"/>
      <point x="324" y="357" type="line" smooth="yes"/>
      <point x="310" y="386"/>
      <point x="287" y="410"/>
      <point x="247" y="410" type="curve"/>
      <point x="152" y="312" type="line"/>
      <point x="162" y="293" type="line"/>
      <point x="180" y="310"/>
      <point x="196" y="325"/>
      <point x="221" y="325" type="curve"/>
      <point x="252" y="325"/>
      <point x="274" y="302"/>
      <point x="292" y="255" type="curve"/>
      <point x="318" y="187" type="line"/>
      <point x="252" y="97" type="line"/>
      <point x="169" y="311" type="line" smooth="yes"/>
      <point x="139" y="388"/>
      <point x="119" y="389"/>
    </contour>
    <contour>
      <point x="446" y="83" type="curve"/>
      <point x="378" y="242" type="line"/>
      <point x="401" y="286"/>
      <point x="421" y="309"/>
      <point x="448" y="309" type="curve"/>
      <point x="488" y="309"/>
      <point x="510" y="278"/>
      <point x="510" y="239" type="curve"/>
      <point x="510" y="174"/>
      <point x="470" y="123"/>
    </contour>
  </outline>
</glyph>
<glyph name="x" format="1">
  <advance width="397"/>
  <unicode hex="0078"/>
  <outline>
    <contour>
      <point x="210" y="182" type="curve"/>
      <point x="210" y="301" type="line"/>
      <point x="255" y="328"/>
      <point x="280" y="280"/>
      <point x="323" y="280" type="curve"/>
      <point x="392" y="344" type="line"/>
      <point x="392" y="353" type="line"/>
      <point x="356" y="362"/>
      <point x="310" y="389"/>
      <point x="293" y="410" type="curve"/>
      <point x="288" y="410" type="line"/>
      <point x="205" y="325" type="line"/>
      <point x="186" y="371"/>
      <point x="171" y="410"/>
      <point x="113" y="410" type="curve"/>
      <point x="35" y="334" type="line"/>
      <point x="41" y="325" type="line"/>
      <point x="92" y="325"/>
      <point x="130" y="319"/>
      <point x="130" y="274" type="curve"/>
      <point x="130" y="104" type="line"/>
      <point x="0" y="-123" type="line"/>
      <point x="28" y="-142" type="line"/>
      <point x="144" y="69" type="line"/>
      <point x="165" y="27"/>
      <point x="208" y="-7"/>
      <point x="247" y="-10" type="curve"/>
      <point x="387" y="88" type="line"/>
      <point x="375" y="108" type="line"/>
      <point x="341" y="88"/>
      <point x="310" y="75"/>
      <point x="299" y="75" type="curve"/>
      <point x="259" y="75"/>
      <point x="210" y="121"/>
    </contour>
  </outline>
</glyph>
<glyph name="y" format="1">
  <advance width="377"/>
  <unicode hex="0079"/>
  <outline>
    <contour>
      <point x="10" y="330" type="line"/>
      <point x="53" y="410" type="line"/>
      <point x="87" y="399"/>
      <point x="137" y="359"/>
      <point x="160" y="325" type="curve"/>
      <point x="230" y="410" type="line"/>
      <point x="307" y="410"/>
      <point x="347" y="358"/>
      <point x="347" y="291" type="curve"/>
      <point x="347" y="208"/>
      <point x="294" y="135"/>
      <point x="229" y="45" type="curve"/>
      <point x="159" y="-52"/>
      <point x="88" y="-141"/>
      <point x="88" y="-163" type="curve"/>
      <point x="88" y="-200"/>
      <point x="271" y="-143"/>
      <point x="346" y="-143" type="curve"/>
      <point x="376" y="-143"/>
      <point x="386" y="-195"/>
      <point x="369" y="-260" type="curve"/>
      <point x="339" y="-260" type="line" smooth="yes"/>
      <point x="345" y="-223"/>
      <point x="338" y="-219"/>
      <point x="321" y="-219" type="curve"/>
      <point x="247" y="-219"/>
      <point x="117" y="-260"/>
      <point x="69" y="-260" type="curve"/>
      <point x="43" y="-260"/>
      <point x="20" y="-241"/>
      <point x="20" y="-208" type="curve"/>
      <point x="20" y="-180"/>
      <point x="56" y="-124"/>
      <point x="95" y="-64" type="curve"/>
      <point x="84" y="253" type="line" smooth="yes"/>
      <point x="83" y="293"/>
      <point x="49" y="320"/>
      <point x="15" y="320" type="curve"/>
    </contour>
    <contour>
      <point x="164" y="303" type="curve"/>
      <point x="164" y="4" type="line"/>
      <point x="217" y="83" type="line" smooth="yes"/>
      <point x="261" y="149"/>
      <point x="277" y="199"/>
      <point x="277" y="238" type="curve"/>
      <point x="277" y="278"/>
      <point x="256" y="315"/>
      <point x="216" y="315" type="curve"/>
      <point x="201" y="315"/>
      <point x="182" y="312"/>
    </contour>
  </outline>
</glyph>
<glyph name="z" format="1">
  <advance width="336"/>
  <unicode hex="007A"/>
  <outline>
    <contour>
      <point x="113" y="75" type="curve"/>
      <point x="244" y="75" type="line" smooth="yes"/>
      <point x="274" y="75"/>
      <point x="295" y="82"/>
      <point x="316" y="93" type="curve"/>
      <point x="319" y="90" type="line"/>
      <point x="287" y="0" type="line"/>
      <point x="195" y="0"/>
      <point x="104" y="4"/>
      <point x="12" y="-4" type="curve"/>
      <point x="10" y="1" type="line"/>
      <point x="85" y="89"/>
      <point x="164" y="221"/>
      <point x="228" y="325" type="curve"/>
      <point x="133" y="325"/>
      <point x="60" y="330"/>
      <point x="24" y="303" type="curve"/>
      <point x="12" y="309" type="line"/>
      <point x="62" y="400" type="line"/>
      <point x="238" y="400" type="line" smooth="yes"/>
      <point x="280" y="400"/>
      <point x="311" y="401"/>
      <point x="322" y="404" type="curve"/>
      <point x="326" y="396" type="line"/>
      <point x="250" y="292"/>
      <point x="181" y="188"/>
    </contour>
  </outline>
</glyph>
<glyph name="dieresis" format="1">
  <advance width="500"/>
  <unicode hex="00A8"/>
  <outline>
    <contour>
      <point x="127" y="483" type="line"/>
      <point x="182" y="483" type="line"/>
      <point x="244" y="560" type="line"/>
      <point x="242" y="564" type="line"/>
      <point x="174" y="564" type="line"/>
      <point x="127" y="485" type="line"/>
    </contour>
    <contour>
      <point x="257" y="483" type="line"/>
      <point x="312" y="483" type="line"/>
      <point x="374" y="560" type="line"/>
      <point x="372" y="564" type="line"/>
      <point x="304" y="564" type="line"/>
      <point x="257" y="485" type="line"/>
    </contour>
  </outline>
</glyph>
<glyph name="AE" format="1">
  <advance width="858"/>
  <unicode hex="00C6"/>
  <outline>
    <contour>
      <point x="180" y="123" type="curve"/>
      <point x="480" y="617" type="line"/>
      <point x="480" y="384" type="line"/>
      <point x="325" y="384" type="line"/>
      <point x="297" y="344" type="line"/>
      <point x="480" y="344" type="line"/>
      <point x="480" y="112" type="line" smooth="yes"/>
      <point x="480" y="58"/>
      <point x="449" y="34"/>
      <point x="407" y="25" type="curve"/>
      <point x="407" y="0" type="line"/>
      <point x="511" y="0" type="line"/>
      <point x="511" y="700" type="line"/>
      <point x="339" y="700" type="line"/>
      <point x="339" y="675" type="line"/>
      <point x="381" y="675"/>
      <point x="425" y="662"/>
      <point x="439" y="649" type="curve"/>
      <point x="10" y="10" type="line"/>
      <point x="15" y="0" type="line"/>
      <point x="238" y="0" type="line"/>
      <point x="243" y="25" type="line"/>
      <point x="195" y="54"/>
      <point x="154" y="80"/>
    </contour>
    <contour>
      <point x="564" y="700" type="line"/>
      <point x="526" y="700" type="line"/>
      <point x="526" y="0" type="line"/>
      <point x="566" y="135" type="line"/>
      <point x="558" y="344" type="line"/>
      <point x="720" y="344" type="line" smooth="yes"/>
      <point x="790" y="344"/>
      <point x="793" y="324"/>
      <point x="818" y="288" type="curve"/>
      <point x="833" y="288" type="line"/>
      <point x="833" y="431" type="line"/>
      <point x="818" y="431" type="line"/>
      <point x="805" y="410"/>
      <point x="790" y="384"/>
      <point x="720" y="384" type="curve"/>
      <point x="564" y="384" type="line"/>
      <point x="564" y="660" type="line"/>
      <point x="687" y="660" type="line" smooth="yes"/>
      <point x="768" y="660"/>
      <point x="792" y="643"/>
      <point x="818" y="589" type="curve"/>
      <point x="833" y="589" type="line"/>
      <point x="833" y="700" type="line"/>
    </contour>
    <contour>
      <point x="480" y="605" type="curve"/>
      <point x="483" y="442"/>
      <point x="481" y="273"/>
      <point x="480" y="135" type="curve"/>
      <point x="479" y="42"/>
      <point x="451" y="32"/>
      <point x="429" y="20" type="curve"/>
      <point x="429" y="0" type="line"/>
      <point x="478" y="0" type="line"/>
      <point x="568" y="0" type="line"/>
      <point x="645" y="0" type="line"/>
      <point x="644" y="23" type="line"/>
      <point x="587" y="38"/>
      <point x="567" y="45"/>
      <point x="566" y="135" type="curve"/>
      <point x="564" y="272"/>
      <point x="564" y="433"/>
      <point x="566" y="605" type="curve"/>
      <point x="566" y="679" type="line"/>
      <point x="617" y="700" type="line"/>
      <point x="568" y="700" type="line"/>
      <point x="478" y="700" type="line"/>
      <point x="429" y="700" type="line"/>
      <point x="429" y="680" type="line"/>
      <point x="451" y="671"/>
      <point x="479" y="658"/>
    </contour>
    <contour>
      <point x="568" y="100" type="curve"/>
      <point x="558" y="0" type="line"/>
      <point x="720" y="0" type="line" smooth="yes"/>
      <point x="790" y="0"/>
      <point x="793" y="-20"/>
      <point x="818" y="-56" type="curve"/>
      <point x="833" y="-56" type="line"/>
      <point x="833" y="87" type="line"/>
      <point x="818" y="87" type="line"/>
      <point x="801" y="66"/>
      <point x="790" y="40"/>
      <point x="720" y="40" type="curve"/>
      <point x="668" y="40"/>
      <point x="575" y="30"/>
    </contour>
  </outline>
</glyph>
<glyph name="Udieresis" format="1">
  <advance width="600"/>
  <unicode hex="00DC"/>
  <outline>
    <contour>
      <point x="197" y="772" type="line"/>
      <point x="302" y="772" type="line"/>
      <point x="334" y="829" type="line"/>
      <point x="332" y="833" type="line"/>
      <point x="224" y="833" type="line"/>
      <point x="197" y="774" type="line"/>
    </contour>
    <contour>
      <point x="377" y="772" type="line"/>
      <point x="482" y="772" type="line"/>
      <point x="514" y="829" type="line"/>
      <point x="512" y="833" type="line"/>
      <point x="404" y="833" type="line"/>
      <point x="377" y="774" type="line"/>
    </contour>
    <component base="U"/>
  </outline>
</glyph>
<glyph name="germandbls" format="1">
  <advance width="360"/>
  <unicode hex="00DF"/>
  <outline>
    <contour>
      <point x="136" y="159" type="curve"/>
      <point x="202" y="213" type="line"/>
      <point x="292" y="183"/>
      <point x="350" y="105"/>
      <point x="350" y="15" type="curve"/>
      <point x="350" y="-80"/>
      <point x="298" y="-152"/>
      <point x="281" y="-167" type="curve"/>
      <point x="258" y="-188"/>
      <point x="197" y="-224"/>
      <point x="59" y="-224" type="curve"/>
      <point x="53" y="-215" type="line"/>
      <point x="97" y="-150" type="line"/>
      <point x="141" y="-161"/>
      <point x="222" y="-173"/>
      <point x="231" y="-166" type="curve"/>
      <point x="247" y="-153"/>
      <point x="275" y="-115"/>
      <point x="275" y="-25" type="curve"/>
      <point x="275" y="65"/>
      <point x="226" y="159"/>
    </contour>
    <contour>
      <point x="40" y="60" type="curve"/>
      <point x="40" y="614" type="line"/>
      <point x="40" y="624"/>
      <point x="169" y="710"/>
      <point x="182" y="710" type="curve"/>
      <point x="249" y="710"/>
      <point x="303" y="676"/>
      <point x="341" y="646" type="curve"/>
      <point x="341" y="643" type="line"/>
      <point x="260" y="586" type="line"/>
      <point x="232" y="613"/>
      <point x="183" y="650"/>
      <point x="120" y="650" type="curve"/>
      <point x="120" y="60" type="line"/>
      <point x="120" y="50"/>
      <point x="135" y="27"/>
      <point x="155" y="15" type="curve"/>
      <point x="155" y="0" type="line"/>
      <point x="120" y="0" type="line"/>
      <point x="40" y="0" type="line"/>
      <point x="10" y="0" type="line"/>
      <point x="10" y="15" type="line"/>
      <point x="30" y="30"/>
      <point x="40" y="50"/>
    </contour>
    <contour>
      <point x="136" y="325" type="curve"/>
      <point x="113" y="325" type="line"/>
      <point x="108" y="336" type="line"/>
      <point x="217" y="410" type="line"/>
      <point x="237" y="410"/>
      <point x="301" y="371"/>
      <point x="301" y="320" type="curve"/>
      <point x="301" y="259"/>
      <point x="183" y="181"/>
      <point x="114" y="148" type="curve"/>
      <point x="114" y="175" type="line"/>
      <point x="149" y="192"/>
      <point x="221" y="237"/>
      <point x="221" y="275" type="curve"/>
      <point x="221" y="293"/>
      <point x="204" y="325"/>
    </contour>
  </outline>
</glyph>
<glyph name="udieresis" format="1">
  <advance width="393"/>
  <unicode hex="00FC"/>
  <outline>
    <contour>
      <point x="30" y="85" type="curve"/>
      <point x="30" y="353" type="line"/>
      <point x="112" y="410" type="line"/>
      <point x="120" y="400" type="line"/>
      <point x="110" y="316"/>
      <point x="111" y="209"/>
      <point x="111" y="135" type="curve"/>
      <point x="111" y="95"/>
      <point x="155" y="74"/>
      <point x="175" y="74" type="curve"/>
      <point x="200" y="74"/>
      <point x="224" y="96"/>
      <point x="229" y="104" type="curve"/>
      <point x="229" y="371" type="line"/>
      <point x="305" y="424" type="line"/>
      <point x="309" y="422" type="line"/>
      <point x="309" y="106" type="line"/>
      <point x="229" y="75" type="line"/>
      <point x="129" y="-11" type="line"/>
      <point x="94" y="-11"/>
      <point x="30" y="60"/>
    </contour>
    <contour>
      <point x="227" y="75" type="curve"/>
      <point x="309" y="111" type="line"/>
      <point x="309" y="83"/>
      <point x="334" y="75"/>
      <point x="356" y="75" type="curve"/>
      <point x="367" y="75"/>
      <point x="377" y="78"/>
      <point x="383" y="82" type="curve"/>
      <point x="388" y="72" type="line"/>
      <point x="371" y="48"/>
      <point x="320" y="-10"/>
      <point x="300" y="-10" type="curve"/>
      <point x="260" y="-10"/>
      <point x="233" y="46"/>
    </contour>
    <component base="dieresis" xOffset="-51" yOffset="-10"/>
  </outline>
</glyph>
<glyph name="OE" format="1">
  <advance width="921"/>
  <unicode hex="0152"/>
  <outline>
    <contour>
      <point x="619" y="605" type="curve"/>
      <point x="619" y="650" type="line"/>
      <point x="750" y="650" type="line" smooth="yes"/>
      <point x="831" y="650"/>
      <point x="855" y="623"/>
      <point x="881" y="569" type="curve"/>
      <point x="896" y="569" type="line"/>
      <point x="896" y="700" type="line"/>
      <point x="496" y="700" type="line"/>
      <point x="432" y="708"/>
      <point x="398" y="710"/>
      <point x="355" y="710" type="curve"/>
      <point x="156" y="710"/>
      <point x="25" y="540"/>
      <point x="25" y="340" type="curve"/>
      <point x="25" y="150"/>
      <point x="156" y="-15"/>
      <point x="361" y="-15" type="curve"/>
      <point x="426" y="-15"/>
      <point x="470" y="-9"/>
      <point x="518" y="0" type="curve"/>
      <point x="803" y="0" type="line" smooth="yes"/>
      <point x="853" y="0"/>
      <point x="855" y="-11"/>
      <point x="881" y="-56" type="curve"/>
      <point x="896" y="-56" type="line"/>
      <point x="896" y="108" type="line"/>
      <point x="885" y="108" type="line"/>
      <point x="868" y="87"/>
      <point x="848" y="61"/>
      <point x="783" y="61" type="curve"/>
      <point x="646" y="61"/>
      <point x="622" y="44"/>
      <point x="619" y="135" type="curve"/>
      <point x="617" y="201"/>
      <point x="618" y="272"/>
      <point x="618" y="347" type="curve"/>
      <point x="783" y="347" type="line" smooth="yes"/>
      <point x="853" y="347"/>
      <point x="856" y="327"/>
      <point x="881" y="291" type="curve"/>
      <point x="896" y="291" type="line"/>
      <point x="896" y="447" type="line"/>
      <point x="881" y="447" type="line"/>
      <point x="868" y="426"/>
      <point x="853" y="400"/>
      <point x="783" y="400" type="curve"/>
      <point x="618" y="400" type="line"/>
      <point x="618" y="470"/>
      <point x="619" y="530"/>
    </contour>
    <contour>
      <point x="130" y="340" type="curve"/>
      <point x="130" y="510"/>
      <point x="206" y="660"/>
      <point x="355" y="660" type="curve"/>
      <point x="436" y="660"/>
      <point x="494" y="629"/>
      <point x="527" y="599" type="curve"/>
      <point x="527" y="148" type="line"/>
      <point x="489" y="83"/>
      <point x="437" y="40"/>
      <point x="355" y="40" type="curve"/>
      <point x="206" y="40"/>
      <point x="130" y="190"/>
    </contour>
  </outline>
</glyph>
<glyph name="quoteright" format="1">
  <advance width="329"/>
  <unicode hex="2019"/>
  <outline>
    <contour>
      <point x="224" y="700" type="line"/>
      <point x="72" y="515" type="line"/>
      <point x="159" y="439" type="line"/>
      <point x="163" y="439" type="line"/>
      <point x="215" y="500" type="line"/>
      <point x="215" y="504" type="line"/>
      <point x="169" y="544" type="line"/>
      <point x="257" y="700" type="line"/>
    </contour>
  </outline>
</glyph>
<glyph name="quotesinglbase" format="1">
  <advance width="331"/>
  <unicode hex="201A"/>
  <outline>
    <contour>
      <point x="182" y="39" type="line"/>
      <point x="73" y="-152" type="line"/>
      <point x="106" y="-152" type="line"/>
      <point x="251" y="26" type="line"/>
      <point x="174" y="118" type="line"/>
      <point x="116" y="41" type="line"/>
      <point x="170" y="-11" type="line"/>
    </contour>
  </outline>
</glyph>
<glyph name="_corner-bdc-court" format="1">
  <advance width="600"/>
  <outline>
    <contour>
      <point x="0" y="60" type="move" smooth="yes"/>
      <point x="0" y="50"/>
      <point x="-10" y="30"/>
      <point x="-30" y="15" type="curve"/>
      <point x="-30" y="0" type="line"/>
      <point x="0" y="0" type="line"/>
    </contour>
  </outline>
</glyph>
<glyph name="c_h" format="1">
  <advance width="685"/>
  <outline>
    <contour>
      <point x="296" y="330" type="line"/>
      <point x="297" y="341" type="line"/>
      <point x="252" y="355"/>
      <point x="217" y="373"/>
      <point x="183" y="410" type="curve"/>
      <point x="179" y="410" type="line"/>
      <point x="39" y="293" type="line"/>
      <point x="26" y="255"/>
      <point x="31" y="160"/>
      <point x="31" y="124" type="curve"/>
      <point x="31" y="50"/>
      <point x="76" y="0"/>
      <point x="127" y="-10" type="curve"/>
      <point x="308" y="93" type="line"/>
      <point x="296" y="119" type="line"/>
      <point x="262" y="99"/>
      <point x="217" y="75"/>
      <point x="179" y="75" type="curve"/>
      <point x="139" y="75"/>
      <point x="101" y="141"/>
      <point x="101" y="252" type="curve"/>
      <point x="101" y="295"/>
      <point x="104" y="312"/>
      <point x="117" y="325" type="curve"/>
      <point x="142" y="299"/>
      <point x="185" y="264"/>
      <point x="208" y="256" type="curve"/>
    </contour>
    <contour>
      <point x="503" y="410" type="curve"/>
      <point x="373" y="307" type="line"/>
      <point x="373" y="272" type="line"/>
      <point x="393" y="295"/>
      <point x="433" y="325"/>
      <point x="472" y="325" type="curve"/>
      <point x="552" y="325"/>
      <point x="600" y="232"/>
      <point x="600" y="152" type="curve"/>
      <point x="600" y="89"/>
      <point x="578" y="39"/>
      <point x="563" y="28" type="curve"/>
      <point x="548" y="17"/>
      <point x="478" y="15"/>
      <point x="457" y="15" type="curve"/>
      <point x="430" y="-60" type="line"/>
      <point x="434" y="-65" type="line"/>
      <point x="507" y="-42"/>
      <point x="586" y="8"/>
      <point x="612" y="37" type="curve"/>
      <point x="637" y="64"/>
      <point x="665" y="141"/>
      <point x="665" y="202" type="curve"/>
      <point x="665" y="317"/>
      <point x="594" y="390"/>
    </contour>
    <contour>
      <point x="374" y="60" type="curve"/>
      <point x="374" y="733" type="line"/>
      <point x="358" y="740" type="line"/>
      <point x="315" y="707"/>
      <point x="313" y="700"/>
      <point x="257" y="700" type="curve"/>
      <point x="176" y="700" type="line"/>
      <point x="101" y="618" type="line"/>
      <point x="110" y="609" type="line"/>
      <point x="155" y="623"/>
      <point x="213" y="629"/>
      <point x="293" y="630" type="curve"/>
      <point x="293" y="60" type="line" smooth="yes"/>
      <point x="293" y="50"/>
      <point x="283" y="30"/>
      <point x="263" y="15" type="curve"/>
      <point x="263" y="0" type="line"/>
      <point x="409" y="0" type="line"/>
      <point x="409" y="15" type="line"/>
      <point x="389" y="27"/>
      <point x="374" y="50"/>
    </contour>
  </outline>
</glyph>
<glyph name="c_k" format="1">
  <advance width="619"/>
  <outline>
    <contour>
      <point x="354" y="320" type="curve"/>
      <point x="354" y="209" type="line"/>
      <point x="445" y="249"/>
      <point x="469" y="286"/>
      <point x="469" y="305" type="curve"/>
      <point x="469" y="325"/>
      <point x="448" y="334"/>
      <point x="428" y="334" type="curve"/>
      <point x="416" y="334"/>
      <point x="384" y="331"/>
    </contour>
    <contour>
      <point x="374" y="184" type="curve"/>
      <point x="353" y="184" type="line"/>
      <point x="353" y="331" type="line"/>
      <point x="446" y="410" type="line"/>
      <point x="501" y="410"/>
      <point x="575" y="353"/>
      <point x="528" y="308" type="curve"/>
      <point x="443" y="227" type="line"/>
      <point x="470" y="212"/>
      <point x="539" y="60"/>
      <point x="598" y="103" type="curve"/>
      <point x="609" y="90" type="line"/>
      <point x="528" y="-10" type="line"/>
      <point x="481" y="-10"/>
      <point x="414" y="184"/>
    </contour>
    <contour>
      <point x="354" y="733" type="line"/>
      <point x="354" y="60" type="line"/>
      <point x="354" y="50"/>
      <point x="369" y="27"/>
      <point x="389" y="15" type="curve"/>
      <point x="389" y="0" type="line"/>
      <point x="243" y="0" type="line"/>
      <point x="243" y="15" type="line"/>
      <point x="263" y="30"/>
      <point x="273" y="50"/>
      <point x="273" y="60" type="curve"/>
      <point x="273" y="630" type="line"/>
      <point x="193" y="629"/>
      <point x="135" y="623"/>
      <point x="90" y="609" type="curve"/>
      <point x="81" y="618" type="line"/>
      <point x="156" y="700" type="line"/>
      <point x="254" y="700" type="line" smooth="yes"/>
      <point x="286" y="700"/>
      <point x="309" y="716"/>
      <point x="338" y="740" type="curve"/>
    </contour>
    <component base="c" xOffset="10"/>
  </outline>
</glyph>
<glyph name="f_f" format="1">
  <advance width="493"/>
  <outline>
    <contour>
      <point x="74" y="301" type="line"/>
      <point x="32" y="301" type="line"/>
      <point x="30" y="306" type="line"/>
      <point x="75" y="359" type="line"/>
      <point x="75" y="644" type="line" smooth="yes"/>
      <point x="75" y="654"/>
      <point x="209" y="710"/>
      <point x="222" y="710" type="curve"/>
      <point x="259" y="710"/>
      <point x="339" y="689"/>
      <point x="377" y="659" type="curve"/>
      <point x="377" y="656" type="line"/>
      <point x="304" y="606" type="line"/>
      <point x="276" y="633"/>
      <point x="185" y="661"/>
      <point x="152" y="661" type="curve"/>
      <point x="152" y="366" type="line"/>
      <point x="362" y="366" type="line"/>
      <point x="362" y="301" type="line"/>
      <point x="154" y="301" type="line"/>
      <point x="154" y="60" type="line"/>
      <point x="154" y="50"/>
      <point x="169" y="27"/>
      <point x="189" y="15" type="curve"/>
      <point x="189" y="0" type="line"/>
      <point x="154" y="0" type="line"/>
      <point x="74" y="0" type="line"/>
      <point x="44" y="0" type="line"/>
      <point x="44" y="15" type="line"/>
      <point x="64" y="30"/>
      <point x="74" y="50"/>
      <point x="74" y="60" type="curve"/>
    </contour>
    <contour>
      <point x="292" y="301" type="line"/>
      <point x="250" y="301" type="line"/>
      <point x="248" y="306" type="line"/>
      <point x="293" y="359" type="line"/>
      <point x="293" y="614" type="line" smooth="yes"/>
      <point x="293" y="624"/>
      <point x="421" y="710"/>
      <point x="434" y="710" type="curve"/>
      <point x="471" y="710"/>
      <point x="525" y="686"/>
      <point x="563" y="656" type="curve"/>
      <point x="563" y="653" type="line"/>
      <point x="482" y="596" type="line"/>
      <point x="454" y="623"/>
      <point x="403" y="650"/>
      <point x="370" y="650" type="curve"/>
      <point x="370" y="366" type="line"/>
      <point x="500" y="366" type="line"/>
      <point x="500" y="301" type="line"/>
      <point x="372" y="301" type="line"/>
      <point x="372" y="60" type="line"/>
      <point x="372" y="50"/>
      <point x="387" y="27"/>
      <point x="407" y="15" type="curve"/>
      <point x="407" y="0" type="line"/>
      <point x="372" y="0" type="line"/>
      <point x="292" y="0" type="line"/>
      <point x="262" y="0" type="line"/>
      <point x="262" y="15" type="line"/>
      <point x="282" y="30"/>
      <point x="292" y="50"/>
      <point x="292" y="60" type="curve"/>
    </contour>
  </outline>
</glyph>
<glyph name="f_f_l" format="1">
  <advance width="662"/>
  <outline>
    <contour>
      <point x="30" y="306" type="line"/>
      <point x="32" y="301" type="line"/>
      <point x="74" y="301" type="line"/>
      <point x="74" y="60" type="line"/>
      <point x="74" y="50"/>
      <point x="64" y="30"/>
      <point x="44" y="15" type="curve"/>
      <point x="44" y="0" type="line"/>
      <point x="74" y="0" type="line"/>
      <point x="154" y="0" type="line"/>
      <point x="189" y="0" type="line"/>
      <point x="189" y="15" type="line"/>
      <point x="169" y="27"/>
      <point x="154" y="50"/>
      <point x="154" y="60" type="curve"/>
      <point x="154" y="301" type="line"/>
      <point x="332" y="301" type="line"/>
      <point x="332" y="366" type="line"/>
      <point x="152" y="366" type="line"/>
      <point x="152" y="650" type="line"/>
      <point x="215" y="650"/>
      <point x="271" y="626"/>
      <point x="290" y="531" type="curve"/>
      <point x="345" y="623" type="line"/>
      <point x="345" y="626" type="line"/>
      <point x="320" y="676"/>
      <point x="283" y="710"/>
      <point x="216" y="710" type="curve"/>
      <point x="203" y="710"/>
      <point x="75" y="624"/>
      <point x="75" y="614" type="curve"/>
      <point x="75" y="359" type="line"/>
    </contour>
    <contour>
      <point x="245" y="306" type="line"/>
      <point x="247" y="301" type="line"/>
      <point x="289" y="301" type="line"/>
      <point x="289" y="60" type="line"/>
      <point x="289" y="50"/>
      <point x="279" y="30"/>
      <point x="259" y="15" type="curve"/>
      <point x="259" y="0" type="line"/>
      <point x="289" y="0" type="line"/>
      <point x="369" y="0" type="line"/>
      <point x="424" y="0" type="line"/>
      <point x="424" y="10" type="line"/>
      <point x="404" y="22"/>
      <point x="369" y="50"/>
      <point x="369" y="60" type="curve"/>
      <point x="369" y="301" type="line"/>
      <point x="457" y="301" type="line"/>
      <point x="457" y="366" type="line"/>
      <point x="367" y="366" type="line"/>
      <point x="367" y="650" type="line"/>
      <point x="400" y="650"/>
      <point x="462" y="621"/>
      <point x="490" y="594" type="curve"/>
      <point x="560" y="653" type="line"/>
      <point x="560" y="656" type="line"/>
      <point x="522" y="686"/>
      <point x="468" y="710"/>
      <point x="431" y="710" type="curve"/>
      <point x="418" y="710"/>
      <point x="290" y="624"/>
      <point x="290" y="614" type="curve"/>
      <point x="290" y="359" type="line"/>
    </contour>
    <contour>
      <point x="570" y="130" type="curve"/>
      <point x="570" y="702" type="line"/>
      <point x="563" y="710" type="line"/>
      <point x="487" y="653" type="line"/>
      <point x="487" y="440" type="line"/>
      <point x="487" y="94" type="line" smooth="yes"/>
      <point x="487" y="44"/>
      <point x="502" y="4"/>
      <point x="557" y="-10" type="curve"/>
      <point x="657" y="60" type="line"/>
      <point x="657" y="75" type="line"/>
      <point x="617" y="75"/>
      <point x="570" y="80"/>
    </contour>
  </outline>
</glyph>
<glyph name="f_i" format="1">
  <advance width="433"/>
  <outline>
    <contour>
      <point x="285" y="64" type="curve"/>
      <point x="285" y="301" type="line"/>
      <point x="246" y="338" type="line"/>
      <point x="348" y="410" type="line"/>
      <point x="365" y="410" type="line"/>
      <point x="365" y="115" type="line" smooth="yes"/>
      <point x="365" y="98"/>
      <point x="412" y="75"/>
      <point x="428" y="75" type="curve"/>
      <point x="428" y="60" type="line"/>
      <point x="368" y="-10" type="line"/>
      <point x="337" y="-10"/>
      <point x="285" y="46"/>
    </contour>
    <contour>
      <point x="74" y="301" type="line"/>
      <point x="32" y="301" type="line"/>
      <point x="30" y="306" type="line"/>
      <point x="75" y="359" type="line"/>
      <point x="75" y="614" type="line" smooth="yes"/>
      <point x="75" y="624"/>
      <point x="203" y="710"/>
      <point x="216" y="710" type="curve"/>
      <point x="253" y="710"/>
      <point x="327" y="676"/>
      <point x="365" y="646" type="curve"/>
      <point x="365" y="643" type="line"/>
      <point x="284" y="586" type="line"/>
      <point x="256" y="613"/>
      <point x="185" y="650"/>
      <point x="152" y="650" type="curve"/>
      <point x="152" y="366" type="line"/>
      <point x="302" y="366" type="line"/>
      <point x="302" y="301" type="line"/>
      <point x="154" y="301" type="line"/>
      <point x="154" y="60" type="line"/>
      <point x="154" y="50"/>
      <point x="169" y="27"/>
      <point x="189" y="15" type="curve"/>
      <point x="189" y="0" type="line"/>
      <point x="154" y="0" type="line"/>
      <point x="74" y="0" type="line"/>
      <point x="44" y="0" type="line"/>
      <point x="44" y="15" type="line"/>
      <point x="64" y="30"/>
      <point x="74" y="50"/>
      <point x="74" y="60" type="curve"/>
    </contour>
  </outline>
</glyph>
<glyph name="f_l" format="1">
  <advance width="456"/>
  <outline>
    <contour>
      <point x="159" y="365" type="line"/>
      <point x="259" y="365" type="line"/>
      <point x="259" y="301" type="line"/>
      <point x="161" y="301" type="line"/>
      <point x="161" y="38" type="line"/>
      <point x="161" y="26"/>
      <point x="167" y="12"/>
      <point x="178" y="12" type="curve"/>
      <point x="178" y="0" type="line"/>
      <point x="64" y="0" type="line"/>
      <point x="64" y="12" type="line"/>
      <point x="73" y="12"/>
      <point x="81" y="25"/>
      <point x="81" y="38" type="curve"/>
      <point x="81" y="301" type="line"/>
      <point x="30" y="301" type="line"/>
      <point x="30" y="308" type="line"/>
      <point x="82" y="359" type="line"/>
      <point x="83" y="634" type="line"/>
      <point x="83" y="634"/>
      <point x="185" y="703"/>
      <point x="238" y="703" type="curve"/>
      <point x="275" y="703"/>
      <point x="309" y="680"/>
      <point x="347" y="650" type="curve"/>
      <point x="277" y="592" type="line"/>
      <point x="249" y="619"/>
      <point x="202" y="636"/>
      <point x="159" y="634" type="curve"/>
    </contour>
    <contour>
      <point x="370" y="704" type="curve"/>
      <point x="385" y="690" type="line"/>
      <point x="378" y="623"/>
      <point x="372" y="260"/>
      <point x="374" y="182" type="curve"/>
      <point x="376" y="115"/>
      <point x="394" y="69"/>
      <point x="451" y="69" type="curve"/>
      <point x="451" y="49" type="line"/>
      <point x="424" y="28"/>
      <point x="397" y="9"/>
      <point x="366" y="-8" type="curve"/>
      <point x="317" y="6"/>
      <point x="293" y="45"/>
      <point x="294" y="85" type="curve"/>
      <point x="295" y="112"/>
      <point x="294" y="392"/>
      <point x="294" y="485" type="curve"/>
      <point x="294" y="534"/>
      <point x="298" y="571"/>
      <point x="277" y="592" type="curve"/>
      <point x="255" y="648" type="line"/>
      <point x="305" y="665"/>
      <point x="340" y="683"/>
    </contour>
  </outline>
</glyph>
<glyph name="germandbls.ss01" format="1">
  <advance width="394"/>
  <outline>
    <contour>
      <point x="131" y="158" type="curve"/>
      <point x="131" y="180" type="line"/>
      <point x="183" y="204" type="line"/>
      <point x="281" y="305" type="line"/>
      <point x="124" y="305" type="line"/>
      <point x="124" y="380" type="line"/>
      <point x="383" y="380" type="line"/>
      <point x="384" y="370" type="line"/>
      <point x="233" y="215" type="line"/>
      <point x="315" y="200"/>
      <point x="366" y="122"/>
      <point x="366" y="30" type="curve"/>
      <point x="366" y="-122"/>
      <point x="234" y="-212"/>
      <point x="148" y="-212" type="curve"/>
      <point x="111" y="-212"/>
      <point x="69" y="-197"/>
      <point x="55" y="-178" type="curve"/>
      <point x="112" y="-111" type="line"/>
      <point x="140" y="-137"/>
      <point x="182" y="-152"/>
      <point x="204" y="-152" type="curve"/>
      <point x="233" y="-152"/>
      <point x="281" y="-140"/>
      <point x="281" y="-17" type="curve"/>
      <point x="281" y="68"/>
      <point x="253" y="177"/>
    </contour>
    <contour>
      <point x="55" y="60" type="curve"/>
      <point x="55" y="614" type="line"/>
      <point x="55" y="624"/>
      <point x="184" y="710"/>
      <point x="197" y="710" type="curve"/>
      <point x="264" y="710"/>
      <point x="318" y="676"/>
      <point x="356" y="646" type="curve"/>
      <point x="356" y="643" type="line"/>
      <point x="275" y="586" type="line"/>
      <point x="247" y="613"/>
      <point x="198" y="650"/>
      <point x="135" y="650" type="curve"/>
      <point x="135" y="60" type="line"/>
      <point x="135" y="50"/>
      <point x="150" y="27"/>
      <point x="170" y="15" type="curve"/>
      <point x="170" y="0" type="line"/>
      <point x="135" y="0" type="line"/>
      <point x="55" y="0" type="line"/>
      <point x="25" y="0" type="line"/>
      <point x="25" y="15" type="line"/>
      <point x="45" y="30"/>
      <point x="55" y="50"/>
    </contour>
  </outline>
</glyph>
<glyph name="kopf" format="1">
  <advance width="816"/>
  <outline>
    <contour>
      <point x="406" y="-7" type="curve"/>
      <point x="617" y="-13"/>
      <point x="773" y="142"/>
      <point x="766" y="348" type="curve"/>
      <point x="759" y="563"/>
      <point x="572" y="700"/>
      <point x="406" y="700" type="curve"/>
      <point x="209" y="700"/>
      <point x="50" y="552"/>
      <point x="50" y="348" type="curve"/>
      <point x="50" y="150"/>
      <point x="209" y="-2"/>
    </contour>
    <contour>
      <point x="213" y="82" type="curve"/>
      <point x="177" y="99"/>
      <point x="145" y="138"/>
      <point x="123" y="176" type="curve"/>
      <point x="141" y="255"/>
      <point x="158" y="335"/>
      <point x="177" y="414" type="curve"/>
      <point x="202" y="304"/>
      <point x="220" y="199"/>
      <point x="239" y="93" type="curve"/>
      <point x="230" y="90"/>
      <point x="222" y="86"/>
    </contour>
    <contour>
      <point x="236" y="316" type="line"/>
      <point x="233" y="203" type="line"/>
      <point x="208" y="345" type="line"/>
    </contour>
    <contour>
      <point x="254" y="97" type="curve"/>
      <point x="251" y="111"/>
      <point x="244" y="132"/>
      <point x="244" y="149" type="curve"/>
      <point x="244" y="188"/>
      <point x="251" y="276"/>
      <point x="251" y="284" type="curve"/>
      <point x="251" y="290"/>
      <point x="252" y="295"/>
      <point x="259" y="295" type="curve"/>
      <point x="263" y="295"/>
      <point x="272" y="284"/>
      <point x="289" y="269" type="curve"/>
      <point x="317" y="242"/>
      <point x="356" y="212"/>
      <point x="393" y="180" type="curve"/>
      <point x="420" y="160"/>
      <point x="446" y="142"/>
      <point x="466" y="122" type="curve"/>
      <point x="364" y="124"/>
      <point x="304" y="111"/>
    </contour>
    <contour>
      <point x="261" y="390" type="line"/>
      <point x="243" y="340" type="line"/>
      <point x="219" y="369" type="line"/>
    </contour>
    <contour>
      <point x="552" y="118" type="curve"/>
      <point x="533" y="121"/>
      <point x="513" y="121"/>
      <point x="494" y="122" type="curve"/>
      <point x="442" y="166"/>
      <point x="396" y="202"/>
      <point x="339" y="249" type="curve"/>
      <point x="353" y="248"/>
      <point x="361" y="251"/>
      <point x="371" y="259" type="curve"/>
      <point x="377" y="266"/>
      <point x="364" y="274"/>
      <point x="360" y="271" type="curve"/>
      <point x="350" y="266"/>
      <point x="339" y="261"/>
      <point x="329" y="266" type="curve"/>
      <point x="318" y="270"/>
      <point x="307" y="281"/>
      <point x="293" y="295" type="curve"/>
      <point x="273" y="316"/>
      <point x="266" y="323"/>
      <point x="262" y="335" type="curve"/>
      <point x="268" y="361"/>
      <point x="287" y="389"/>
      <point x="298" y="413" type="curve"/>
      <point x="337" y="421"/>
      <point x="357" y="432"/>
      <point x="406" y="436" type="curve"/>
      <point x="452" y="440"/>
      <point x="462" y="439"/>
      <point x="501" y="436" type="curve"/>
      <point x="538" y="433"/>
      <point x="572" y="426"/>
      <point x="584" y="420" type="curve"/>
      <point x="591" y="417"/>
      <point x="597" y="416"/>
      <point x="597" y="410" type="curve"/>
      <point x="597" y="404"/>
      <point x="594" y="401"/>
      <point x="590" y="400" type="curve"/>
      <point x="581" y="397"/>
      <point x="559" y="407"/>
      <point x="548" y="410" type="curve"/>
      <point x="522" y="416"/>
      <point x="480" y="421"/>
      <point x="477" y="418" type="curve"/>
      <point x="477" y="414"/>
      <point x="510" y="403"/>
      <point x="533" y="390" type="curve"/>
      <point x="548" y="382"/>
      <point x="561" y="369"/>
      <point x="570" y="369" type="curve"/>
      <point x="579" y="369"/>
      <point x="581" y="373"/>
      <point x="590" y="383" type="curve"/>
      <point x="598" y="393"/>
      <point x="603" y="400"/>
      <point x="607" y="404" type="curve"/>
      <point x="611" y="409"/>
      <point x="617" y="420"/>
      <point x="608" y="424" type="curve"/>
      <point x="600" y="426"/>
      <point x="537" y="442"/>
      <point x="512" y="446" type="curve"/>
      <point x="501" y="447"/>
      <point x="483" y="449"/>
      <point x="472" y="452" type="curve"/>
      <point x="621" y="492" type="line"/>
      <point x="628" y="467"/>
      <point x="632" y="429"/>
      <point x="629" y="413" type="curve"/>
      <point x="626" y="404"/>
      <point x="621" y="401"/>
      <point x="615" y="393" type="curve"/>
      <point x="615" y="348"/>
      <point x="615" y="301"/>
      <point x="615" y="256" type="curve"/>
      <point x="604" y="256"/>
      <point x="583" y="266"/>
      <point x="580" y="266" type="curve"/>
      <point x="577" y="261"/>
      <point x="577" y="258"/>
      <point x="577" y="254" type="curve"/>
      <point x="580" y="251"/>
      <point x="584" y="251"/>
      <point x="587" y="249" type="curve"/>
      <point x="580" y="221"/>
      <point x="561" y="160"/>
    </contour>
    <contour>
      <point x="198" y="385" type="curve"/>
      <point x="158" y="506"/>
      <point x="247" y="666"/>
      <point x="411" y="658" type="curve"/>
      <point x="572" y="651"/>
      <point x="603" y="569"/>
      <point x="617" y="509" type="curve"/>
      <point x="557" y="494"/>
      <point x="495" y="477"/>
      <point x="435" y="468" type="curve"/>
      <point x="400" y="452"/>
      <point x="365" y="443"/>
      <point x="326" y="435" type="curve"/>
      <point x="283" y="418"/>
      <point x="240" y="401"/>
    </contour>
    <contour>
      <point x="227" y="68" type="curve"/>
      <point x="249" y="85"/>
      <point x="357" y="107"/>
      <point x="414" y="107" type="curve"/>
      <point x="495" y="107"/>
      <point x="558" y="104"/>
      <point x="624" y="88" type="curve"/>
      <point x="555" y="30"/>
      <point x="492" y="19"/>
      <point x="406" y="19" type="curve"/>
      <point x="340" y="19"/>
      <point x="277" y="34"/>
    </contour>
  </outline>
</glyph>
<glyph name="mann" format="1">
  <advance width="684"/>
  <outline>
    <contour>
      <point x="545" y="154" type="curve"/>
      <point x="534" y="171"/>
      <point x="526" y="190"/>
      <point x="523" y="197" type="curve"/>
      <point x="520" y="205"/>
      <point x="454" y="318"/>
      <point x="446" y="331" type="curve"/>
      <point x="438" y="349"/>
      <point x="363" y="462"/>
      <point x="337" y="498" type="curve"/>
      <point x="310" y="534"/>
      <point x="269" y="603"/>
      <point x="210" y="625" type="curve"/>
      <point x="210" y="628" type="line"/>
      <point x="245" y="613"/>
      <point x="284" y="582"/>
      <point x="303" y="551" type="curve"/>
      <point x="345" y="554"/>
      <point x="352" y="557"/>
      <point x="366" y="564" type="curve"/>
      <point x="375" y="569"/>
      <point x="392" y="584"/>
      <point x="373" y="595" type="curve"/>
      <point x="369" y="598"/>
      <point x="365" y="602"/>
      <point x="362" y="604" type="curve"/>
      <point x="332" y="635"/>
      <point x="296" y="633"/>
      <point x="248" y="629" type="curve"/>
      <point x="238" y="628"/>
      <point x="229" y="631"/>
      <point x="228" y="636" type="curve"/>
      <point x="226" y="644"/>
      <point x="219" y="660"/>
      <point x="217" y="667" type="curve"/>
      <point x="207" y="689"/>
      <point x="208" y="691"/>
      <point x="205" y="690" type="curve"/>
      <point x="203" y="689"/>
      <point x="205" y="678"/>
      <point x="208" y="668" type="curve"/>
      <point x="211" y="660"/>
      <point x="209" y="654"/>
      <point x="208" y="654" type="curve"/>
      <point x="205" y="654"/>
      <point x="200" y="663"/>
      <point x="198" y="668" type="curve"/>
      <point x="189" y="683" type="line"/>
      <point x="187" y="686"/>
      <point x="185" y="693"/>
      <point x="182" y="692" type="curve"/>
      <point x="179" y="691"/>
      <point x="185" y="675"/>
      <point x="187" y="671" type="curve"/>
      <point x="189" y="666"/>
      <point x="192" y="660"/>
      <point x="192" y="657" type="curve"/>
      <point x="192" y="655"/>
      <point x="186" y="655"/>
      <point x="183" y="656" type="curve"/>
      <point x="180" y="657"/>
      <point x="165" y="667"/>
      <point x="165" y="676" type="curve"/>
      <point x="165" y="681"/>
      <point x="164" y="680"/>
      <point x="158" y="680" type="curve"/>
      <point x="154" y="680"/>
      <point x="149" y="680"/>
      <point x="146" y="682" type="curve"/>
      <point x="144" y="683"/>
      <point x="143" y="683"/>
      <point x="143" y="686" type="curve"/>
      <point x="143" y="688"/>
      <point x="143" y="688"/>
      <point x="140" y="687" type="curve"/>
      <point x="137" y="686"/>
      <point x="123" y="686"/>
      <point x="123" y="689" type="curve"/>
      <point x="123" y="691"/>
      <point x="123" y="691"/>
      <point x="126" y="694" type="curve"/>
      <point x="127" y="695"/>
      <point x="126" y="695"/>
      <point x="114" y="693" type="curve"/>
      <point x="103" y="691"/>
      <point x="103" y="693"/>
      <point x="103" y="694" type="curve"/>
      <point x="103" y="697"/>
      <point x="111" y="701"/>
      <point x="107" y="701" type="curve"/>
      <point x="103" y="701"/>
      <point x="98" y="695"/>
      <point x="95" y="694" type="curve"/>
      <point x="92" y="693"/>
      <point x="87" y="691"/>
      <point x="91" y="697" type="curve"/>
      <point x="96" y="702"/>
      <point x="93" y="701"/>
      <point x="89" y="698" type="curve"/>
      <point x="85" y="695"/>
      <point x="86" y="694"/>
      <point x="80" y="688" type="curve"/>
      <point x="78" y="687"/>
      <point x="76" y="687"/>
      <point x="74" y="687" type="curve"/>
      <point x="68" y="687"/>
      <point x="65" y="682"/>
      <point x="65" y="680" type="curve"/>
      <point x="64" y="670" type="line"/>
      <point x="64" y="669"/>
      <point x="63" y="669"/>
      <point x="62" y="670" type="curve"/>
      <point x="60" y="671"/>
      <point x="59" y="668"/>
      <point x="61" y="664" type="curve"/>
      <point x="63" y="660"/>
      <point x="62" y="657"/>
      <point x="61" y="656" type="curve"/>
      <point x="57" y="652"/>
      <point x="57" y="654"/>
      <point x="57" y="645" type="curve"/>
      <point x="57" y="636"/>
      <point x="56" y="638"/>
      <point x="57" y="635" type="curve"/>
      <point x="58" y="630"/>
      <point x="55" y="626"/>
      <point x="55" y="619" type="curve"/>
      <point x="55" y="613"/>
      <point x="53" y="607"/>
      <point x="51" y="605" type="curve"/>
      <point x="49" y="604"/>
      <point x="51" y="603"/>
      <point x="52" y="603" type="curve"/>
      <point x="53" y="603"/>
      <point x="60" y="604"/>
      <point x="60" y="601" type="curve"/>
      <point x="60" y="598" type="line"/>
      <point x="59" y="597"/>
      <point x="59" y="596"/>
      <point x="59" y="595" type="curve"/>
      <point x="59" y="593"/>
      <point x="54" y="592"/>
      <point x="60" y="590" type="curve"/>
      <point x="62" y="589"/>
      <point x="61" y="586"/>
      <point x="60" y="584" type="curve"/>
      <point x="59" y="581"/>
      <point x="55" y="576"/>
      <point x="62" y="576" type="curve"/>
      <point x="66" y="576"/>
      <point x="68" y="580"/>
      <point x="72" y="582" type="curve"/>
      <point x="75" y="584"/>
      <point x="77" y="586"/>
      <point x="82" y="588" type="curve"/>
      <point x="84" y="589"/>
      <point x="85" y="589"/>
      <point x="88" y="588" type="curve"/>
      <point x="89" y="587"/>
      <point x="92" y="588"/>
      <point x="95" y="589" type="curve"/>
      <point x="98" y="590"/>
      <point x="99" y="589"/>
      <point x="101" y="587" type="curve"/>
      <point x="102" y="586"/>
      <point x="103" y="586"/>
      <point x="103" y="585" type="curve"/>
      <point x="103" y="584"/>
      <point x="102" y="577"/>
      <point x="102" y="572" type="curve"/>
      <point x="102" y="566"/>
      <point x="107" y="540"/>
      <point x="132" y="506" type="curve"/>
      <point x="158" y="473"/>
      <point x="156" y="478"/>
      <point x="167" y="458" type="curve"/>
      <point x="179" y="431"/>
      <point x="197" y="421"/>
      <point x="226" y="401" type="curve"/>
      <point x="255" y="380"/>
      <point x="256" y="379"/>
      <point x="269" y="369" type="curve"/>
      <point x="294" y="351" type="line"/>
      <point x="293" y="351" type="line"/>
      <point x="283" y="354"/>
      <point x="273" y="363"/>
      <point x="264" y="370" type="curve"/>
      <point x="257" y="376"/>
      <point x="244" y="384"/>
      <point x="239" y="387" type="curve"/>
      <point x="234" y="390"/>
      <point x="230" y="397"/>
      <point x="217" y="391" type="curve"/>
      <point x="210" y="388"/>
      <point x="203" y="373"/>
      <point x="200" y="365" type="curve"/>
      <point x="197" y="356"/>
      <point x="193" y="345"/>
      <point x="189" y="338" type="curve"/>
      <point x="185" y="331"/>
      <point x="170" y="308"/>
      <point x="168" y="306" type="curve"/>
      <point x="166" y="304"/>
      <point x="160" y="295"/>
      <point x="156" y="281" type="curve"/>
      <point x="152" y="267"/>
      <point x="148" y="261"/>
      <point x="147" y="257" type="curve"/>
      <point x="147" y="236" type="line"/>
      <point x="145" y="236" type="line"/>
      <point x="144" y="241"/>
      <point x="144" y="246"/>
      <point x="145" y="253" type="curve"/>
      <point x="145" y="254"/>
      <point x="132" y="236"/>
      <point x="131" y="234" type="curve"/>
      <point x="131" y="232"/>
      <point x="131" y="232"/>
      <point x="131" y="230" type="curve"/>
      <point x="131" y="228"/>
      <point x="131" y="216"/>
      <point x="131" y="213" type="curve"/>
      <point x="131" y="206" type="line"/>
      <point x="132" y="209"/>
      <point x="133" y="211"/>
      <point x="134" y="215" type="curve"/>
      <point x="135" y="225" type="line"/>
      <point x="142" y="232" type="line"/>
      <point x="144" y="232" type="line"/>
      <point x="155" y="240" type="line"/>
      <point x="157" y="239" type="line"/>
      <point x="153" y="236"/>
      <point x="150" y="233"/>
      <point x="145" y="229" type="curve"/>
      <point x="138" y="223" type="line"/>
      <point x="138" y="215"/>
      <point x="138" y="213"/>
      <point x="134" y="207" type="curve"/>
      <point x="132" y="203" type="line"/>
      <point x="130" y="193"/>
      <point x="129" y="185"/>
      <point x="127" y="169" type="curve"/>
      <point x="125" y="154"/>
      <point x="124" y="127"/>
      <point x="123" y="121" type="curve"/>
      <point x="122" y="114"/>
      <point x="117" y="82"/>
      <point x="111" y="66" type="curve"/>
      <point x="107" y="59"/>
      <point x="108" y="61"/>
      <point x="105" y="53" type="curve"/>
      <point x="103" y="47"/>
      <point x="98" y="44"/>
      <point x="96" y="42" type="curve"/>
      <point x="94" y="41"/>
      <point x="87" y="29"/>
      <point x="83" y="24" type="curve"/>
      <point x="79" y="20"/>
      <point x="72" y="15"/>
      <point x="70" y="14" type="curve"/>
      <point x="68" y="14"/>
      <point x="67" y="14"/>
      <point x="66" y="14" type="curve"/>
      <point x="65" y="14"/>
      <point x="62" y="12"/>
      <point x="57" y="9" type="curve"/>
      <point x="52" y="6" type="line"/>
      <point x="52" y="0" type="line"/>
      <point x="98" y="0" type="line" smooth="yes"/>
      <point x="122" y="0"/>
      <point x="160" y="1"/>
      <point x="172" y="1" type="curve"/>
      <point x="182" y="1"/>
      <point x="250" y="4"/>
      <point x="259" y="4" type="curve"/>
      <point x="266" y="4"/>
      <point x="346" y="4"/>
      <point x="356" y="3" type="curve"/>
      <point x="367" y="2"/>
      <point x="434" y="3"/>
      <point x="449" y="4" type="curve"/>
      <point x="464" y="5"/>
      <point x="496" y="5"/>
      <point x="500" y="5" type="curve"/>
      <point x="476" y="45" type="line"/>
      <point x="432" y="126" type="line"/>
      <point x="391" y="208" type="line"/>
      <point x="366" y="258" type="line"/>
      <point x="367" y="258" type="line"/>
      <point x="410" y="176" type="line"/>
      <point x="449" y="106" type="line"/>
      <point x="503" y="6" type="line"/>
      <point x="523" y="6"/>
      <point x="540" y="8"/>
      <point x="563" y="7" type="curve"/>
      <point x="584" y="6"/>
      <point x="608" y="2"/>
      <point x="616" y="33" type="curve"/>
      <point x="620" y="34"/>
      <point x="616" y="22"/>
      <point x="614" y="19" type="curve"/>
      <point x="623" y="12"/>
      <point x="628" y="9"/>
      <point x="632" y="5" type="curve"/>
      <point x="634" y="7" type="line"/>
      <point x="633" y="13"/>
      <point x="636" y="16"/>
      <point x="630" y="22" type="curve"/>
      <point x="625" y="29"/>
      <point x="625" y="36"/>
      <point x="622" y="42" type="curve"/>
      <point x="617" y="50"/>
      <point x="623" y="55"/>
      <point x="608" y="57" type="curve"/>
      <point x="600" y="67"/>
      <point x="591" y="80"/>
      <point x="586" y="87" type="curve"/>
      <point x="581" y="94"/>
      <point x="557" y="137"/>
    </contour>
    <contour>
      <point x="255" y="609" type="curve"/>
      <point x="255" y="612" type="line"/>
      <point x="309" y="621"/>
      <point x="355" y="595"/>
      <point x="351" y="601" type="curve"/>
      <point x="347" y="607"/>
      <point x="341" y="607"/>
      <point x="334" y="608" type="curve"/>
      <point x="334" y="610" type="line"/>
      <point x="349" y="609"/>
      <point x="349" y="608"/>
      <point x="354" y="603" type="curve"/>
      <point x="360" y="597"/>
      <point x="361" y="595"/>
      <point x="365" y="595" type="curve"/>
      <point x="365" y="590" type="line"/>
      <point x="354" y="598"/>
      <point x="306" y="615"/>
    </contour>
    <contour>
      <point x="226" y="630" type="curve"/>
      <point x="226" y="626" type="line"/>
      <point x="212" y="626"/>
      <point x="201" y="635"/>
      <point x="203" y="645" type="curve"/>
      <point x="194" y="643"/>
      <point x="188" y="649"/>
      <point x="187" y="653" type="curve"/>
      <point x="189" y="653" type="line"/>
      <point x="192" y="650"/>
      <point x="200" y="644"/>
      <point x="205" y="649" type="curve"/>
      <point x="207" y="648" type="line"/>
      <point x="203" y="635"/>
      <point x="220" y="630"/>
    </contour>
    <contour>
      <point x="304" y="537" type="curve"/>
      <point x="303" y="534" type="line"/>
      <point x="280" y="558"/>
      <point x="206" y="596"/>
      <point x="156" y="598" type="curve"/>
      <point x="156" y="600" type="line"/>
      <point x="222" y="597"/>
      <point x="271" y="564"/>
    </contour>
    <contour>
      <point x="58" y="615" type="curve"/>
      <point x="57" y="615" type="line"/>
      <point x="58" y="617"/>
      <point x="58" y="617"/>
      <point x="58" y="622" type="curve"/>
      <point x="58" y="627"/>
      <point x="63" y="631"/>
      <point x="63" y="632" type="curve"/>
      <point x="63" y="635"/>
      <point x="63" y="638"/>
      <point x="63" y="641" type="curve"/>
      <point x="63" y="638"/>
      <point x="64" y="637"/>
      <point x="65" y="633" type="curve"/>
      <point x="67" y="636" type="line"/>
      <point x="66" y="634"/>
      <point x="67" y="633"/>
      <point x="65" y="632" type="curve"/>
      <point x="63" y="630"/>
      <point x="60" y="626"/>
      <point x="60" y="623" type="curve"/>
      <point x="60" y="620"/>
      <point x="59" y="616"/>
    </contour>
    <contour>
      <point x="61" y="638" type="curve"/>
      <point x="60" y="638" type="line"/>
      <point x="60" y="647"/>
      <point x="63" y="649"/>
      <point x="65" y="649" type="curve"/>
      <point x="67" y="649"/>
      <point x="70" y="647"/>
      <point x="70" y="643" type="curve"/>
      <point x="69" y="643" type="line"/>
      <point x="68" y="646"/>
      <point x="67" y="647"/>
      <point x="65" y="647" type="curve"/>
      <point x="63" y="647"/>
      <point x="62" y="644"/>
    </contour>
    <contour>
      <point x="73" y="639" type="curve"/>
      <point x="73" y="633" type="line"/>
      <point x="73" y="632"/>
      <point x="73" y="631"/>
      <point x="77" y="628" type="curve"/>
      <point x="82" y="625"/>
      <point x="81" y="626"/>
      <point x="84" y="621" type="curve"/>
      <point x="86" y="617"/>
      <point x="85" y="615"/>
      <point x="84" y="612" type="curve"/>
      <point x="83" y="613" type="line"/>
      <point x="83" y="617" type="line" smooth="yes"/>
      <point x="83" y="623"/>
      <point x="79" y="624"/>
      <point x="76" y="626" type="curve"/>
      <point x="74" y="627"/>
      <point x="71" y="631"/>
      <point x="72" y="639" type="curve"/>
      <point x="72" y="639"/>
      <point x="72" y="639"/>
    </contour>
    <contour>
      <point x="68" y="591" type="curve"/>
      <point x="67" y="591" type="line"/>
      <point x="68" y="600" type="line"/>
      <point x="64" y="598" type="line"/>
      <point x="65" y="592"/>
      <point x="65" y="588"/>
      <point x="64" y="584" type="curve"/>
      <point x="63" y="584" type="line"/>
      <point x="65" y="591"/>
      <point x="63" y="597"/>
      <point x="63" y="598" type="curve"/>
      <point x="63" y="599"/>
      <point x="63" y="599"/>
      <point x="63" y="599" type="curve"/>
      <point x="63" y="599"/>
      <point x="67" y="601"/>
      <point x="68" y="602" type="curve"/>
      <point x="67" y="609" type="line"/>
      <point x="69" y="609" type="line"/>
      <point x="69" y="603" type="line"/>
      <point x="77" y="608"/>
      <point x="80" y="608"/>
      <point x="88" y="606" type="curve"/>
      <point x="88" y="605" type="line"/>
      <point x="83" y="607"/>
      <point x="76" y="605"/>
      <point x="73" y="604" type="curve"/>
      <point x="72" y="602"/>
      <point x="72" y="601"/>
      <point x="72" y="600" type="curve"/>
      <point x="71" y="600" type="line"/>
      <point x="71" y="603" type="line"/>
      <point x="69" y="601" type="line"/>
      <point x="69" y="595"/>
      <point x="69" y="594"/>
    </contour>
    <contour>
      <point x="73" y="608" type="line"/>
      <point x="75" y="614" type="line"/>
      <point x="76" y="614" type="line"/>
      <point x="75" y="608" type="line"/>
    </contour>
    <contour>
      <point x="89" y="664" type="curve"/>
      <point x="91" y="663" type="line"/>
      <point x="90" y="658"/>
      <point x="88" y="652"/>
      <point x="96" y="647" type="curve"/>
      <point x="102" y="644"/>
      <point x="106" y="654"/>
      <point x="107" y="654" type="curve"/>
      <point x="106" y="654" type="line"/>
      <point x="109" y="653" type="line"/>
      <point x="109" y="650" type="line"/>
      <point x="107" y="646"/>
      <point x="102" y="638"/>
      <point x="92" y="644" type="curve"/>
      <point x="92" y="642"/>
      <point x="96" y="629"/>
      <point x="110" y="636" type="curve"/>
      <point x="111" y="635" type="line"/>
      <point x="106" y="630"/>
      <point x="90" y="626"/>
      <point x="90" y="647" type="curve"/>
      <point x="90" y="650"/>
      <point x="83" y="654"/>
    </contour>
    <contour>
      <point x="105" y="595" type="curve"/>
      <point x="105" y="599" type="line"/>
      <point x="109" y="600"/>
      <point x="107" y="604"/>
      <point x="106" y="606" type="curve"/>
      <point x="105" y="608"/>
      <point x="106" y="612"/>
      <point x="107" y="614" type="curve"/>
      <point x="100" y="615"/>
      <point x="96" y="623"/>
      <point x="96" y="628" type="curve"/>
      <point x="98" y="628" type="line"/>
      <point x="99" y="625"/>
      <point x="104" y="620"/>
      <point x="105" y="619" type="curve"/>
      <point x="106" y="618"/>
      <point x="108" y="617"/>
      <point x="110" y="618" type="curve"/>
      <point x="112" y="619"/>
      <point x="114" y="620"/>
      <point x="115" y="621" type="curve"/>
      <point x="116" y="622"/>
      <point x="117" y="621"/>
      <point x="117" y="624" type="curve"/>
      <point x="117" y="627"/>
      <point x="119" y="626"/>
      <point x="120" y="625" type="curve"/>
      <point x="121" y="624"/>
      <point x="124" y="626"/>
      <point x="125" y="624" type="curve"/>
      <point x="129" y="617"/>
      <point x="137" y="629"/>
      <point x="141" y="636" type="curve"/>
      <point x="143" y="632" type="line" smooth="yes"/>
      <point x="145" y="627"/>
      <point x="152" y="629"/>
      <point x="163" y="633" type="curve"/>
      <point x="174" y="637"/>
      <point x="178" y="635"/>
      <point x="186" y="631" type="curve"/>
      <point x="184" y="630" type="line"/>
      <point x="179" y="632"/>
      <point x="169" y="633"/>
      <point x="165" y="631" type="curve"/>
      <point x="159" y="626"/>
      <point x="153" y="624"/>
      <point x="148" y="624" type="curve"/>
      <point x="147" y="620" type="line"/>
      <point x="150" y="621"/>
      <point x="162" y="621"/>
      <point x="167" y="620" type="curve"/>
      <point x="172" y="619"/>
      <point x="187" y="617"/>
      <point x="184" y="620" type="curve"/>
      <point x="177" y="627"/>
      <point x="171" y="624"/>
      <point x="163" y="622" type="curve"/>
      <point x="162" y="623" type="line"/>
      <point x="166" y="626"/>
      <point x="170" y="630"/>
      <point x="179" y="628" type="curve"/>
      <point x="190" y="626"/>
      <point x="189" y="627"/>
      <point x="202" y="620" type="curve"/>
      <point x="214" y="613"/>
      <point x="219" y="609"/>
      <point x="227" y="604" type="curve"/>
      <point x="226" y="602" type="line"/>
      <point x="223" y="604"/>
      <point x="200" y="618"/>
      <point x="196" y="617" type="curve"/>
      <point x="183" y="614"/>
      <point x="178" y="615"/>
      <point x="169" y="617" type="curve"/>
      <point x="158" y="619"/>
      <point x="152" y="619"/>
      <point x="145" y="616" type="curve"/>
      <point x="139" y="604"/>
      <point x="133" y="600"/>
      <point x="125" y="599" type="curve"/>
      <point x="113" y="598"/>
      <point x="109" y="589"/>
      <point x="106" y="585" type="curve"/>
      <point x="105" y="586" type="line"/>
      <point x="112" y="598"/>
      <point x="115" y="599"/>
      <point x="124" y="600" type="curve"/>
      <point x="133" y="601"/>
      <point x="144" y="618"/>
      <point x="147" y="624" type="curve"/>
      <point x="143" y="624"/>
      <point x="143" y="625"/>
      <point x="140" y="628" type="curve"/>
      <point x="136" y="621"/>
      <point x="129" y="614"/>
      <point x="121" y="620" type="curve"/>
      <point x="119" y="620"/>
      <point x="104" y="614"/>
      <point x="110" y="606" type="curve"/>
      <point x="116" y="599"/>
      <point x="107" y="594"/>
    </contour>
    <contour>
      <point x="116" y="636" type="curve"/>
      <point x="116" y="626" type="line"/>
      <point x="114" y="623" type="line"/>
      <point x="113" y="636" type="line"/>
      <point x="115" y="638" type="line"/>
      <point x="121" y="649"/>
      <point x="126" y="647"/>
      <point x="132" y="647" type="curve"/>
      <point x="132" y="645" type="line"/>
      <point x="124" y="645"/>
      <point x="120" y="641"/>
    </contour>
    <contour>
      <point x="128" y="654" type="curve"/>
      <point x="126" y="655" type="line"/>
      <point x="137" y="663"/>
      <point x="148" y="656"/>
      <point x="153" y="646" type="curve"/>
      <point x="152" y="643" type="line"/>
      <point x="150" y="643" type="line"/>
      <point x="150" y="643"/>
      <point x="150" y="643"/>
      <point x="150" y="643" type="curve"/>
      <point x="147" y="656"/>
      <point x="134" y="657"/>
    </contour>
    <contour>
      <point x="153" y="648" type="line"/>
      <point x="153" y="651" type="line"/>
      <point x="155" y="652"/>
      <point x="163" y="659"/>
      <point x="170" y="650" type="curve"/>
      <point x="175" y="640"/>
      <point x="176" y="644"/>
      <point x="181" y="645" type="curve"/>
      <point x="185" y="646"/>
      <point x="190" y="640"/>
      <point x="189" y="638" type="curve"/>
      <point x="188" y="637" type="line"/>
      <point x="187" y="639"/>
      <point x="182" y="641"/>
      <point x="177" y="640" type="curve"/>
      <point x="175" y="639"/>
      <point x="172" y="643"/>
      <point x="169" y="647" type="curve"/>
      <point x="162" y="656"/>
      <point x="157" y="649"/>
      <point x="155" y="648" type="curve"/>
    </contour>
    <contour>
      <point x="158" y="548" type="curve"/>
      <point x="155" y="548" type="line"/>
      <point x="150" y="562"/>
      <point x="132" y="564"/>
      <point x="132" y="563" type="curve"/>
      <point x="132" y="562"/>
      <point x="178" y="519"/>
      <point x="190" y="511" type="curve"/>
      <point x="202" y="503"/>
      <point x="233" y="483"/>
      <point x="231" y="479" type="curve"/>
      <point x="228" y="475"/>
      <point x="227" y="471"/>
      <point x="232" y="467" type="curve"/>
      <point x="242" y="460"/>
      <point x="239" y="458"/>
      <point x="240" y="453" type="curve"/>
      <point x="235" y="454" type="line"/>
      <point x="238" y="461"/>
      <point x="231" y="463"/>
      <point x="226" y="466" type="curve"/>
      <point x="221" y="470"/>
      <point x="225" y="475"/>
      <point x="226" y="479" type="curve"/>
      <point x="183" y="512" type="line"/>
      <point x="171" y="523"/>
      <point x="129" y="559"/>
      <point x="128" y="562" type="curve"/>
      <point x="127" y="565"/>
      <point x="128" y="575"/>
      <point x="132" y="573" type="curve"/>
      <point x="148" y="566"/>
      <point x="152" y="558"/>
    </contour>
    <contour>
      <point x="226" y="455" type="line"/>
      <point x="226" y="457" type="line"/>
      <point x="258" y="443" type="line"/>
      <point x="260" y="434"/>
      <point x="281" y="406"/>
      <point x="285" y="402" type="curve"/>
      <point x="288" y="398"/>
      <point x="293" y="396"/>
      <point x="298" y="392" type="curve"/>
      <point x="297" y="390" type="line"/>
      <point x="273" y="395"/>
      <point x="267" y="423"/>
      <point x="254" y="439" type="curve"/>
    </contour>
    <contour>
      <point x="305" y="384" type="curve"/>
      <point x="307" y="387" type="line"/>
      <point x="310" y="381"/>
      <point x="311" y="379"/>
      <point x="311" y="375" type="curve"/>
      <point x="309" y="375" type="line"/>
      <point x="309" y="377"/>
      <point x="307" y="380"/>
    </contour>
    <contour>
      <point x="295" y="386" type="curve"/>
      <point x="296" y="389" type="line"/>
      <point x="304" y="387"/>
      <point x="310" y="373"/>
      <point x="309" y="367" type="curve"/>
      <point x="305" y="366" type="line"/>
      <point x="304" y="375"/>
      <point x="300" y="383"/>
    </contour>
    <contour>
      <point x="305" y="366" type="move"/>
      <point x="306" y="356" type="line"/>
    </contour>
    <contour>
      <point x="378" y="297" type="line"/>
      <point x="382" y="301" type="line"/>
      <point x="439" y="240" type="line"/>
      <point x="584" y="81" type="line"/>
      <point x="607" y="54" type="line"/>
      <point x="590" y="68" type="line"/>
      <point x="521" y="137" type="line"/>
      <point x="376" y="292" type="line"/>
    </contour>
    <contour>
      <point x="360" y="322" type="line"/>
      <point x="363" y="326" type="line"/>
      <point x="363" y="329" type="line"/>
      <point x="359" y="332" type="line"/>
      <point x="360" y="335" type="line"/>
      <point x="364" y="334" type="line"/>
      <point x="370" y="334" type="line"/>
      <point x="369" y="329" type="line"/>
      <point x="366" y="328" type="line"/>
      <point x="364" y="317" type="line"/>
      <point x="357" y="310" type="line"/>
      <point x="351" y="310" type="line"/>
      <point x="347" y="313" type="line"/>
      <point x="342" y="315"/>
      <point x="341" y="313"/>
      <point x="338" y="313" type="curve"/>
      <point x="335" y="304" type="line"/>
      <point x="333" y="288"/>
      <point x="363" y="294"/>
      <point x="373" y="308" type="curve"/>
      <point x="383" y="322"/>
      <point x="392" y="342"/>
      <point x="374" y="350" type="curve"/>
      <point x="374" y="352" type="line"/>
      <point x="377" y="353" type="line"/>
      <point x="407" y="332"/>
      <point x="379" y="303"/>
      <point x="376" y="298" type="curve"/>
      <point x="375" y="295" type="line"/>
      <point x="371" y="293"/>
      <point x="352" y="282"/>
      <point x="338" y="291" type="curve"/>
      <point x="322" y="300"/>
      <point x="332" y="306"/>
      <point x="334" y="314" type="curve"/>
      <point x="331" y="315" type="line"/>
      <point x="320" y="329" type="line"/>
      <point x="310" y="337" type="line"/>
      <point x="299" y="346" type="line"/>
      <point x="300" y="352" type="line"/>
      <point x="303" y="349" type="line"/>
      <point x="310" y="343" type="line"/>
      <point x="323" y="330" type="line"/>
      <point x="335" y="319" type="line"/>
      <point x="343" y="321" type="line"/>
      <point x="353" y="316" type="line"/>
      <point x="360" y="320" type="line"/>
    </contour>
    <contour>
      <point x="376" y="323" type="line"/>
      <point x="368" y="318" type="line"/>
      <point x="372" y="323" type="line"/>
      <point x="372" y="325" type="line"/>
      <point x="372" y="330" type="line"/>
      <point x="373" y="329" type="line"/>
      <point x="376" y="325" type="line"/>
    </contour>
    <contour>
      <point x="348" y="338" type="line"/>
      <point x="346" y="336" type="line"/>
      <point x="341" y="345"/>
      <point x="333" y="362"/>
      <point x="328" y="362" type="curve"/>
      <point x="328" y="358"/>
      <point x="330" y="351"/>
      <point x="324" y="351" type="curve"/>
      <point x="320" y="352" type="line"/>
      <point x="320" y="363" type="line"/>
      <point x="322" y="364" type="line"/>
      <point x="323" y="355" type="line"/>
      <point x="324" y="354" type="line"/>
      <point x="324" y="362" type="line"/>
      <point x="324" y="364" type="line"/>
      <point x="330" y="364"/>
      <point x="335" y="363"/>
      <point x="343" y="348" type="curve"/>
    </contour>
    <contour>
      <point x="330" y="346" type="line"/>
      <point x="330" y="350" type="line"/>
      <point x="332" y="349" type="line"/>
      <point x="334" y="349" type="line"/>
      <point x="334" y="350" type="line"/>
      <point x="333" y="351" type="line"/>
      <point x="335" y="352" type="line"/>
      <point x="338" y="349" type="line"/>
      <point x="336" y="346" type="line"/>
    </contour>
    <contour>
      <point x="347" y="341" type="line"/>
      <point x="347" y="343" type="line"/>
      <point x="351" y="344" type="line"/>
      <point x="351" y="345" type="line"/>
      <point x="354" y="345" type="line"/>
      <point x="355" y="342" type="line"/>
      <point x="358" y="341" type="line"/>
      <point x="356" y="337" type="line"/>
      <point x="357" y="329" type="line"/>
      <point x="355" y="324" type="line"/>
      <point x="346" y="325" type="line"/>
      <point x="342" y="329"/>
      <point x="337" y="330"/>
      <point x="332" y="329" type="curve"/>
      <point x="332" y="332" type="line"/>
      <point x="333" y="333"/>
      <point x="337" y="337"/>
      <point x="344" y="330" type="curve"/>
      <point x="350" y="324"/>
      <point x="352" y="327"/>
      <point x="352" y="329" type="curve"/>
      <point x="352" y="336" type="line"/>
      <point x="351" y="336" type="line"/>
      <point x="351" y="340" type="line"/>
    </contour>
    <contour>
      <point x="168" y="246" type="curve"/>
      <point x="168" y="249" type="line"/>
      <point x="198" y="266"/>
      <point x="246" y="316"/>
      <point x="248" y="339" type="curve"/>
      <point x="250" y="358"/>
      <point x="243" y="359"/>
      <point x="235" y="352" type="curve"/>
      <point x="233" y="355" type="line"/>
      <point x="244" y="367"/>
      <point x="255" y="358"/>
      <point x="254" y="345" type="curve"/>
      <point x="252" y="317"/>
      <point x="203" y="265"/>
    </contour>
    <contour>
      <point x="178" y="228" type="line"/>
      <point x="170" y="240" type="line"/>
      <point x="175" y="240" type="line"/>
      <point x="178" y="232" type="line"/>
    </contour>
    <contour>
      <point x="132" y="47" type="line"/>
      <point x="135" y="49" type="line"/>
      <point x="137" y="46" type="line"/>
      <point x="137" y="35" type="line"/>
      <point x="129" y="29" type="line"/>
      <point x="125" y="28" type="line"/>
      <point x="120" y="30" type="line"/>
      <point x="116" y="38" type="line"/>
      <point x="119" y="40" type="line"/>
      <point x="124" y="34" type="line"/>
      <point x="128" y="34" type="line"/>
      <point x="132" y="38" type="line"/>
    </contour>
    <contour>
      <point x="152" y="21" type="line"/>
      <point x="147" y="14" type="line"/>
      <point x="147" y="14" type="line"/>
      <point x="147" y="17" type="line"/>
      <point x="147" y="23" type="line"/>
      <point x="147" y="34" type="line"/>
      <point x="147" y="36" type="line"/>
      <point x="144" y="46" type="line"/>
      <point x="143" y="51"/>
      <point x="145" y="75"/>
      <point x="145" y="78" type="curve"/>
      <point x="145" y="81"/>
      <point x="149" y="109"/>
      <point x="152" y="124" type="curve"/>
      <point x="151" y="124" type="line"/>
      <point x="142" y="108"/>
      <point x="138" y="78"/>
      <point x="136" y="79" type="curve"/>
      <point x="138" y="101"/>
      <point x="145" y="115"/>
      <point x="152" y="127" type="curve"/>
      <point x="162" y="150" type="line"/>
      <point x="171" y="162"/>
      <point x="179" y="197"/>
      <point x="181" y="212" type="curve"/>
      <point x="183" y="228"/>
      <point x="189" y="229"/>
      <point x="194" y="235" type="curve"/>
      <point x="224" y="260" type="line"/>
      <point x="236" y="272" type="line"/>
      <point x="240" y="277" type="line"/>
      <point x="255" y="290" type="line"/>
      <point x="257" y="309" type="line"/>
      <point x="258" y="334" type="line"/>
      <point x="260" y="335" type="line"/>
      <point x="261" y="327" type="line"/>
      <point x="260" y="279" type="line"/>
      <point x="260" y="222" type="line"/>
      <point x="258" y="126" type="line"/>
      <point x="259" y="123" type="line"/>
      <point x="263" y="114" type="line"/>
      <point x="274" y="88" type="line"/>
      <point x="288" y="55" type="line"/>
      <point x="292" y="37" type="line"/>
      <point x="293" y="67" type="line"/>
      <point x="298" y="115" type="line"/>
      <point x="294" y="130" type="line"/>
      <point x="288" y="165" type="line"/>
      <point x="288" y="181" type="line"/>
      <point x="285" y="228" type="line"/>
      <point x="282" y="258" type="line"/>
      <point x="283" y="259" type="line"/>
      <point x="288" y="218" type="line"/>
      <point x="293" y="165" type="line"/>
      <point x="300" y="118" type="line"/>
      <point x="303" y="125" type="line"/>
      <point x="300" y="192" type="line"/>
      <point x="299" y="241" type="line"/>
      <point x="298" y="293" type="line"/>
      <point x="298" y="343" type="line"/>
      <point x="300" y="343" type="line"/>
      <point x="302" y="302" type="line"/>
      <point x="304" y="239" type="line"/>
      <point x="307" y="127" type="line"/>
      <point x="311" y="126" type="line"/>
      <point x="333" y="103" type="line"/>
      <point x="342" y="101" type="line"/>
      <point x="366" y="96" type="line"/>
      <point x="378" y="93" type="line"/>
      <point x="369" y="124" type="line"/>
      <point x="355" y="171" type="line"/>
      <point x="341" y="224" type="line"/>
      <point x="329" y="268" type="line"/>
      <point x="321" y="295" type="line"/>
      <point x="322" y="296" type="line"/>
      <point x="328" y="285" type="line"/>
      <point x="333" y="267" type="line"/>
      <point x="339" y="244" type="line"/>
      <point x="360" y="170" type="line"/>
      <point x="382" y="99" type="line"/>
      <point x="388" y="73" type="line"/>
      <point x="395" y="57" type="line"/>
      <point x="422" y="47"/>
      <point x="439" y="32"/>
      <point x="442" y="22" type="curve"/>
      <point x="458" y="22"/>
      <point x="474" y="18"/>
      <point x="485" y="13" type="curve"/>
      <point x="454" y="14" type="line"/>
      <point x="443" y="17" type="line"/>
      <point x="433" y="17" type="line"/>
      <point x="418" y="22"/>
      <point x="400" y="18"/>
      <point x="393" y="17" type="curve"/>
      <point x="385" y="16"/>
      <point x="372" y="16"/>
      <point x="362" y="16" type="curve"/>
      <point x="351" y="18" type="line"/>
      <point x="367" y="11" type="line"/>
      <point x="347" y="11" type="line"/>
      <point x="336" y="14" type="line"/>
      <point x="309" y="14" type="line"/>
      <point x="205" y="15" type="line"/>
      <point x="203" y="14" type="line"/>
      <point x="159" y="15" type="line"/>
      <point x="153" y="27" type="line"/>
      <point x="152" y="26" type="line"/>
    </contour>
    <contour>
      <point x="81" y="3" type="line"/>
      <point x="72" y="3" type="line"/>
      <point x="82" y="5" type="line"/>
      <point x="103" y="8" type="line"/>
      <point x="112" y="9"/>
      <point x="119" y="12"/>
      <point x="135" y="8" type="curve"/>
      <point x="144" y="8" type="line"/>
      <point x="143" y="6" type="line"/>
      <point x="133" y="6" type="line"/>
      <point x="120" y="10"/>
      <point x="110" y="6"/>
      <point x="98" y="6" type="curve"/>
    </contour>
    <contour>
      <point x="103" y="9" type="move"/>
    </contour>
    <contour>
      <point x="385" y="11" type="line"/>
      <point x="386" y="14" type="line"/>
      <point x="387" y="14"/>
      <point x="407" y="16"/>
      <point x="421" y="15" type="curve"/>
      <point x="435" y="14" type="line"/>
      <point x="445" y="14" type="line"/>
      <point x="446" y="13" type="line"/>
      <point x="430" y="12" type="line"/>
      <point x="408" y="11" type="line"/>
      <point x="400" y="11" type="line"/>
    </contour>
    <contour>
      <point x="383" y="14" type="move"/>
    </contour>
    <contour>
      <point x="323" y="124" type="line"/>
      <point x="321" y="121" type="line"/>
      <point x="319" y="143" type="line"/>
      <point x="316" y="199" type="line"/>
      <point x="312" y="239" type="line"/>
      <point x="307" y="316" type="line"/>
      <point x="309" y="316" type="line"/>
      <point x="313" y="270" type="line"/>
      <point x="317" y="216" type="line"/>
      <point x="321" y="167" type="line"/>
    </contour>
  </outline>
</glyph>
<glyph name="t_h" format="1">
  <advance width="715"/>
  <outline>
    <contour>
      <point x="5" y="340" type="line"/>
      <point x="5" y="325" type="line"/>
      <point x="51" y="325" type="line"/>
      <point x="51" y="130" type="line" smooth="yes"/>
      <point x="51" y="30"/>
      <point x="112" y="-10"/>
      <point x="157" y="-10" type="curve"/>
      <point x="182" y="-10"/>
      <point x="214" y="17"/>
      <point x="366" y="80" type="curve"/>
      <point x="361" y="95" type="line"/>
      <point x="325" y="88" type="line" smooth="yes"/>
      <point x="266" y="76"/>
      <point x="249" y="75"/>
      <point x="218" y="75" type="curve"/>
      <point x="158" y="75"/>
      <point x="131" y="89"/>
      <point x="131" y="143" type="curve"/>
      <point x="131" y="325" type="line"/>
      <point x="353" y="325" type="line"/>
      <point x="353" y="390" type="line"/>
      <point x="131" y="390" type="line"/>
      <point x="131" y="460" type="line"/>
      <point x="125" y="460" type="line"/>
    </contour>
    <contour>
      <point x="333" y="630" type="curve"/>
      <point x="362" y="700" type="line"/>
      <point x="186" y="700" type="line"/>
      <point x="111" y="618" type="line"/>
      <point x="120" y="609" type="line"/>
      <point x="170" y="625"/>
      <point x="238" y="630"/>
    </contour>
    <contour>
      <point x="314" y="644" type="line"/>
      <point x="314" y="639" type="line"/>
      <point x="322" y="585"/>
      <point x="323" y="504"/>
      <point x="323" y="440" type="curve"/>
      <point x="323" y="60" type="line"/>
      <point x="323" y="50"/>
      <point x="313" y="30"/>
      <point x="293" y="15" type="curve"/>
      <point x="293" y="0" type="line"/>
      <point x="323" y="0" type="line"/>
      <point x="403" y="0" type="line"/>
      <point x="438" y="0" type="line"/>
      <point x="438" y="15" type="line"/>
      <point x="418" y="27"/>
      <point x="403" y="50"/>
      <point x="403" y="60" type="curve"/>
      <point x="403" y="272" type="line"/>
      <point x="423" y="295"/>
      <point x="463" y="325"/>
      <point x="502" y="325" type="curve"/>
      <point x="582" y="325"/>
      <point x="630" y="232"/>
      <point x="630" y="152" type="curve"/>
      <point x="630" y="89"/>
      <point x="608" y="39"/>
      <point x="593" y="28" type="curve"/>
      <point x="578" y="17"/>
      <point x="508" y="15"/>
      <point x="487" y="15" type="curve"/>
      <point x="460" y="-60" type="line"/>
      <point x="464" y="-65" type="line"/>
      <point x="537" y="-42"/>
      <point x="616" y="8"/>
      <point x="642" y="37" type="curve"/>
      <point x="667" y="64"/>
      <point x="695" y="141"/>
      <point x="695" y="202" type="curve"/>
      <point x="695" y="337"/>
      <point x="624" y="410"/>
      <point x="533" y="410" type="curve"/>
      <point x="404" y="301" type="line"/>
      <point x="404" y="745" type="line"/>
      <point x="398" y="750" type="line"/>
    </contour>
  </outline>
</glyph>
<glyph name="t_z" format="1">
  <advance width="521"/>
  <outline>
    <contour>
      <point x="454" y="386" type="line"/>
      <point x="120" y="386" type="line"/>
      <point x="115" y="311" type="line"/>
      <point x="382" y="311" type="line"/>
      <point x="456" y="381" type="line"/>
    </contour>
    <contour>
      <point x="456" y="381" type="line"/>
      <point x="348" y="324" type="line"/>
      <point x="223" y="178" type="line"/>
      <point x="227" y="169" type="line"/>
      <point x="365" y="164"/>
      <point x="371" y="22"/>
      <point x="371" y="-38" type="curve"/>
      <point x="371" y="-135"/>
      <point x="354" y="-169"/>
      <point x="341" y="-191" type="curve"/>
      <point x="271" y="-191"/>
      <point x="217" y="-172"/>
      <point x="194" y="-155" type="curve"/>
      <point x="141" y="-251" type="line"/>
      <point x="224" y="-280"/>
      <point x="323" y="-258"/>
      <point x="356" y="-227" type="curve"/>
      <point x="414" y="-173"/>
      <point x="451" y="-101"/>
      <point x="451" y="10" type="curve"/>
      <point x="451" y="112"/>
      <point x="419" y="202"/>
      <point x="331" y="246" type="curve"/>
    </contour>
    <contour>
      <point x="131" y="157" type="curve"/>
      <point x="131" y="327" type="line"/>
      <point x="136" y="370" type="line"/>
      <point x="136" y="473" type="line"/>
      <point x="127" y="473" type="line"/>
      <point x="5" y="331" type="line"/>
      <point x="5" y="311" type="line"/>
      <point x="51" y="311" type="line"/>
      <point x="51" y="91" type="line" smooth="yes"/>
      <point x="51" y="51"/>
      <point x="72" y="-10"/>
      <point x="142" y="-10" type="curve"/>
      <point x="257" y="75" type="line"/>
      <point x="244" y="95" type="line"/>
      <point x="227" y="84"/>
      <point x="203" y="75"/>
      <point x="186" y="75" type="curve"/>
      <point x="165" y="75"/>
      <point x="131" y="90"/>
    </contour>
  </outline>
</glyph>
<glyph name="z.ss01" format="1">
  <advance width="376"/>
  <outline>
    <contour>
      <point x="38" y="317" type="curve"/>
      <point x="27" y="328" type="line"/>
      <point x="96" y="410" type="line"/>
      <point x="159" y="398"/>
      <point x="230" y="381"/>
      <point x="275" y="381" type="curve"/>
      <point x="293" y="381"/>
      <point x="305" y="386"/>
      <point x="340" y="410" type="curve"/>
      <point x="366" y="388" type="line"/>
      <point x="317" y="354"/>
      <point x="218" y="203"/>
      <point x="153" y="106" type="curve"/>
      <point x="198" y="86"/>
      <point x="251" y="75"/>
      <point x="300" y="75" type="curve"/>
      <point x="320" y="75"/>
      <point x="342" y="84"/>
      <point x="348" y="92" type="curve"/>
      <point x="361" y="84" type="line"/>
      <point x="299" y="-10" type="line"/>
      <point x="253" y="-10"/>
      <point x="172" y="16"/>
      <point x="98" y="48" type="curve"/>
      <point x="38" y="-10" type="line"/>
      <point x="10" y="17" type="line"/>
      <point x="74" y="70"/>
      <point x="183" y="219"/>
      <point x="236" y="312" type="curve"/>
      <point x="191" y="312"/>
      <point x="113" y="328"/>
      <point x="83" y="328" type="curve"/>
      <point x="60" y="328"/>
      <point x="46" y="323"/>
    </contour>
  </outline>
</glyph>
